<?xml version="1.0" standalone="no"?>
<!DOCTYPE svg PUBLIC "-//W3C//DTD SVG 20010904//EN"
 "http://www.w3.org/TR/2001/REC-SVG-20010904/DTD/svg10.dtd">
<svg version="1.0" xmlns="http://www.w3.org/2000/svg"
 width="16.000000pt" height="16.000000pt" viewBox="0 0 16.000000 16.000000"
 preserveAspectRatio="xMidYMid meet">
<metadata>
Created by potrace 1.11, written by Peter Selinger 2001-2013
</metadata>
<g transform="translate(0.000000,16.000000) scale(0.000736,-0.000736)"
fill="#000000" stroke="none">
<path d="M8715 19733 c2 -10 4 -20 5 -23 1 -3 2 -9 1 -13 -1 -5 3 -6 8 -3 5 3
7 15 4 26 -7 25 -22 36 -18 13z"/>
<path d="M8762 19742 c-16 -2 -22 -8 -18 -19 4 -9 2 -21 -4 -28 -7 -8 -6 -12
4 -12 9 0 13 9 11 23 -1 13 2 21 6 18 5 -3 7 -15 5 -27 -3 -21 -8 -22 -112
-24 -97 -2 -455 -12 -461 -13 -2 0 -3 -15 -3 -34 0 -34 -1 -34 -42 -36 -24 0
-79 -2 -123 -4 -44 -3 -99 -5 -122 -5 l-43 -1 0 -40 0 -40 -142 -1 c-79 -1
-151 0 -161 1 -15 1 -18 -5 -17 -27 4 -54 5 -53 -85 -53 -53 0 -85 -4 -85 -11
0 -5 -6 -7 -12 -3 -10 6 -10 4 0 -7 17 -18 15 -27 -5 -32 -17 -4 -17 -5 0 -6
9 0 17 -5 17 -10 0 -5 -37 -10 -82 -11 -179 -4 -161 1 -160 -52 1 -30 10 -28
-130 -31 -38 -1 -38 -2 -38 -42 0 -45 13 -40 -123 -44 -46 -1 -48 -2 -47 -28
4 -50 1 -55 -27 -53 -16 1 -52 2 -80 1 l-53 -1 0 -40 0 -40 -80 0 -80 0 0 -38
0 -39 -82 -9 -83 -9 3 -31 c4 -35 -8 -43 -51 -39 -32 4 -37 -3 -39 -50 -1 -32
-4 -36 -27 -35 -14 1 -50 2 -78 1 l-53 -1 0 -40 0 -40 -45 0 -45 0 0 -40 0
-40 -57 -1 c-102 -2 -98 0 -101 -41 -3 -37 -4 -38 -43 -38 -33 0 -39 -3 -40
-22 -1 -13 -1 -27 0 -32 3 -16 -20 -34 -39 -29 -11 3 -28 2 -37 -2 -10 -5 -22
-7 -27 -6 -5 1 -5 -4 1 -11 6 -7 10 -24 8 -38 -1 -20 -7 -25 -31 -26 -16 -1
-50 -2 -76 -2 l-48 -2 0 -40 0 -40 -40 0 -40 0 0 -40 0 -40 -45 0 c-28 0 -45
-5 -45 -12 0 -6 -3 -8 -6 -5 -4 3 -15 2 -25 -3 -12 -7 -19 -6 -21 2 -3 9 -6 9
-12 0 -4 -7 -2 -12 3 -12 6 0 11 -5 11 -11 0 -5 -5 -7 -12 -3 -7 4 -8 3 -4 -5
13 -21 -15 -41 -55 -41 -39 0 -39 0 -39 -40 l0 -40 -40 0 -40 0 0 -40 0 -40
-50 0 c-40 0 -48 -3 -44 -15 4 -8 2 -15 -4 -15 -6 0 -13 6 -15 13 -4 9 -6 9
-6 0 -1 -7 8 -17 19 -23 26 -14 15 -40 -17 -40 -17 0 -22 4 -17 13 6 9 5 9 -7
0 -8 -6 -35 -13 -59 -15 -44 -3 -45 -4 -45 -38 0 -34 -1 -35 -42 -38 -43 -3
-43 -3 -43 -43 0 -39 0 -39 -42 -41 -24 -1 -60 -2 -80 -2 -40 0 -40 -1 -41
-63 0 -23 -2 -23 -124 -23 l-124 0 3 -35 c1 -19 0 -36 -2 -39 -3 -2 -116 -6
-252 -8 -135 -1 -244 -6 -242 -10 2 -3 -6 -15 -19 -25 -13 -10 -22 -23 -20
-30 3 -8 -70 -10 -268 -9 -251 1 -272 2 -275 19 -1 9 2 15 7 11 12 -7 11 3 -1
26 -9 17 -46 18 -866 19 l-856 2 2 -28 c4 -49 1 -52 -47 -55 -45 -3 -48 -4
-46 -30 1 -16 -3 -28 -10 -28 -9 0 -8 -3 1 -9 9 -5 3 -8 -17 -9 -23 0 -28 3
-24 15 5 12 8 12 15 1 7 -9 8 -8 4 6 -5 13 -2 17 8 13 9 -4 13 0 12 10 -3 18
-46 29 -46 12 0 -5 5 -7 11 -3 7 4 10 1 7 -7 -3 -8 -10 -13 -16 -12 -7 2 -9
-4 -5 -14 4 -9 2 -14 -3 -10 -6 3 -11 -4 -11 -15 -2 -27 -12 -35 -23 -18 -7
11 -11 11 -24 1 -13 -11 -16 -11 -16 -1 0 8 -3 10 -7 6 -5 -4 1 -15 12 -23 20
-15 20 -15 -2 -10 -14 3 -20 1 -17 -7 3 -7 11 -13 19 -13 15 0 19 10 16 35 -2
10 2 10 18 0 12 -7 21 -16 21 -21 0 -4 -4 -6 -9 -2 -5 3 -13 0 -17 -6 -4 -7
-3 -9 4 -5 6 3 13 2 17 -4 4 -6 -5 -10 -22 -9 -51 3 -53 1 -53 -46 l0 -45 -40
0 c-37 0 -40 -2 -40 -28 0 -15 6 -34 13 -41 10 -11 10 -13 0 -7 -15 8 -16 -11
-15 -313 1 -148 4 -196 14 -202 10 -7 10 -9 1 -9 -8 0 -13 -13 -13 -32 0 -25
3 -29 10 -18 5 8 10 10 10 4 0 -6 8 -11 18 -11 39 0 42 -3 42 -43 0 -38 1 -40
33 -41 17 -1 35 -1 39 0 5 0 8 -19 8 -44 0 -25 5 -45 10 -45 7 0 7 -6 0 -20
-8 -15 -8 -20 1 -20 8 0 8 -4 -1 -15 -10 -12 -10 -15 4 -15 9 0 16 6 16 13 0
8 3 9 8 1 4 -6 19 -14 34 -18 18 -4 25 -11 22 -20 -3 -8 0 -17 6 -21 9 -6 9
-10 -1 -16 -7 -4 -10 -11 -6 -16 5 -4 12 -1 16 6 7 11 9 11 13 0 4 -12 7 -12
21 0 15 12 17 11 17 -3 0 -12 10 -16 45 -16 l45 0 0 -40 0 -40 80 0 80 0 0
-40 0 -40 88 -1 c167 -2 156 2 162 -45 4 -36 8 -40 24 -34 11 4 37 3 58 0 68
-13 731 -5 736 8 2 7 9 9 15 5 9 -5 9 -3 1 8 -5 8 -10 23 -10 34 1 19 9 20
161 23 88 2 161 5 163 7 1 1 3 19 4 39 l1 36 121 1 c178 3 199 4 204 18 3 9
-2 11 -19 6 -19 -5 -21 -4 -9 4 8 6 12 11 8 12 -5 1 -12 3 -18 4 -5 1 -18 3
-27 4 -16 1 -16 3 -3 11 12 8 12 10 1 10 -8 0 -12 3 -9 6 4 3 15 1 27 -5 11
-6 22 -7 25 -2 3 5 63 10 133 11 166 3 222 6 230 14 3 3 2 6 -3 6 -5 0 -9 12
-8 28 l1 27 204 5 c183 5 1529 2 1638 -3 33 -1 45 -6 47 -19 1 -9 -4 -19 -12
-22 -17 -7 -18 5 -1 24 10 12 9 12 -5 1 -12 -9 -18 -10 -18 -2 0 17 -27 13
-34 -5 -5 -13 -4 -14 7 -6 8 7 17 9 20 5 9 -9 9 -23 0 -22 -20 3 -33 -2 -33
-13 0 -6 3 -8 7 -5 3 4 12 2 20 -5 8 -6 13 -7 12 -2 -4 21 2 28 11 14 6 -10
10 -11 10 -2 0 6 4 12 10 12 5 0 9 -6 7 -12 -2 -15 14 -16 246 -17 l169 -1 -4
-37 -3 -38 167 -3 166 -2 -1 -38 -2 -37 110 -2 c129 -3 155 -8 155 -29 0 -9
-5 -12 -12 -8 -7 4 -8 3 -4 -5 4 -6 12 -8 18 -5 6 4 6 -2 -1 -15 -14 -26 3
-29 19 -3 11 16 11 16 6 0 -3 -11 0 -18 7 -18 7 0 13 11 13 24 1 13 -3 23 -10
22 -6 0 -12 4 -14 9 -1 6 6 10 17 11 15 1 18 -4 16 -27 -2 -16 1 -32 7 -35 11
-7 120 -16 204 -18 37 0 40 -3 38 -26 -3 -34 -2 -34 -17 -21 -10 7 -17 7 -24
0 -8 -8 -13 -7 -18 2 -5 7 -4 10 2 6 5 -3 10 0 10 8 0 8 -5 11 -10 8 -6 -4 -7
-1 -2 8 5 8 4 11 -1 6 -4 -4 -9 -19 -10 -32 -1 -20 4 -24 30 -25 17 0 72 -3
123 -6 l92 -5 3 -36 c3 -32 7 -36 33 -39 22 -2 26 -1 15 6 -9 6 -10 10 -3 10
6 0 15 -4 18 -10 3 -5 44 -10 91 -10 l84 0 0 -40 0 -40 85 0 c78 0 85 -2 86
-20 1 -11 2 -28 3 -37 1 -15 15 -19 91 -25 49 -4 95 -8 100 -9 6 -1 17 0 25 2
11 3 16 -7 20 -36 6 -44 -2 -41 118 -44 l52 -1 0 -40 0 -40 80 0 c85 0 84 0
80 -52 l-2 -28 86 0 86 0 0 -40 0 -40 80 0 80 0 0 -40 c0 -31 4 -40 18 -41 9
0 28 -2 42 -3 14 -1 43 -3 66 -4 38 -2 41 -4 39 -29 -3 -45 5 -54 44 -53 20 1
55 2 79 1 l42 -1 0 -40 0 -40 81 0 81 0 -4 -40 -4 -40 48 0 48 0 0 -40 0 -40
80 0 80 0 0 -40 c0 -25 5 -40 13 -41 6 0 32 -3 57 -5 25 -3 54 -6 65 -7 15 -2
21 -11 23 -39 3 -38 4 -38 48 -38 l44 0 0 -41 c0 -41 0 -41 38 -39 20 1 56 2
80 1 l42 -1 0 -40 0 -40 46 0 c25 0 43 -4 39 -9 -3 -5 -1 -13 5 -16 7 -5 8
-11 1 -19 -19 -22 5 -35 74 -40 39 -2 74 -5 78 -5 5 -1 7 -9 6 -18 -5 -55 0
-62 43 -65 41 -3 43 -4 43 -38 0 -30 3 -35 25 -35 14 0 28 5 32 10 5 6 8 5 8
-2 0 -9 16 -13 45 -13 25 0 44 -3 44 -7 -1 -5 -1 -23 0 -40 1 -32 2 -33 46
-33 l45 0 0 -40 0 -40 48 -1 c26 -1 57 -1 70 -1 15 1 20 -3 15 -11 -4 -8 -1
-7 9 1 15 12 17 9 20 -30 3 -44 2 -43 60 -47 12 -1 18 -12 20 -38 3 -37 4 -38
46 -41 41 -3 42 -4 42 -40 0 -36 2 -38 33 -38 139 -4 129 -2 127 -31 -4 -50
-2 -53 40 -53 40 0 40 0 40 -39 0 -40 0 -40 43 -43 40 -3 42 -5 44 -36 2 -43
3 -44 54 -46 24 -2 45 -8 47 -14 2 -7 8 -12 13 -12 6 0 7 4 4 10 -4 6 5 9 19
8 21 -2 25 -7 24 -28 -2 -47 1 -50 42 -50 l40 0 0 -40 0 -40 40 0 40 0 0 -40
0 -40 46 0 46 0 -4 -37 -3 -38 45 -5 c32 -4 44 -9 42 -19 -2 -8 -1 -25 2 -37
5 -20 15 -23 81 -29 l75 -7 0 -39 c0 -39 0 -39 40 -39 40 0 40 0 40 -39 0 -40
0 -40 43 -43 41 -3 42 -3 42 -40 l-1 -38 43 0 43 0 0 -43 0 -44 39 4 40 4 3
-43 c3 -40 5 -43 33 -45 17 0 35 -2 41 -2 6 -1 10 -18 10 -38 -1 -38 -1 -38
42 -41 42 -3 42 -3 42 -43 0 -39 0 -39 40 -39 37 0 40 -2 41 -27 1 -16 1 -33
0 -38 0 -6 8 -11 19 -12 11 -1 20 4 20 10 0 7 4 6 10 -3 5 -8 10 -11 10 -6 0
5 7 3 15 -4 8 -7 12 -17 9 -22 -4 -6 1 -6 13 0 35 19 58 8 58 -26 0 -21 9 -40
25 -54 13 -13 18 -16 12 -7 -10 14 -8 16 16 17 24 0 27 -3 29 -35 2 -44 4 -45
46 -45 34 0 35 -1 33 -39 -1 -39 -1 -39 39 -40 22 -1 44 -1 49 0 5 1 4 -5 -4
-13 -7 -9 -8 -16 -3 -16 6 0 10 -12 9 -27 -1 -27 1 -28 44 -26 32 2 41 0 30
-7 -10 -6 -11 -10 -2 -10 7 0 12 -14 12 -35 0 -34 1 -35 41 -35 32 0 40 -3 38
-17 -5 -56 -1 -63 41 -63 l40 0 0 -40 c0 -41 3 -44 52 -40 25 1 27 -2 30 -42
3 -43 3 -43 43 -43 44 0 40 11 44 -117 1 -36 2 -38 36 -38 28 0 33 3 29 18 -5
15 -4 15 5 1 6 -9 12 -26 14 -38 2 -11 6 -24 10 -27 4 -4 2 -13 -4 -21 -12
-14 -14 -13 46 -16 26 -2 30 -6 31 -34 1 -18 2 -37 3 -43 0 -5 19 -10 40 -10
l40 0 -3 -40 -3 -40 43 0 43 0 3 -42 3 -43 38 3 37 4 0 -46 0 -46 40 0 40 0 0
-40 0 -40 40 0 40 0 1 -42 c1 -24 1 -46 0 -50 0 -5 3 -8 8 -8 5 0 7 -9 4 -20
-3 -12 0 -20 6 -20 7 0 10 4 6 9 -3 5 -1 12 4 16 6 3 7 13 4 23 -4 13 -2 13
10 -3 22 -27 21 -32 -10 -49 l-28 -15 25 2 c14 1 31 8 38 17 11 13 11 13 6 -2
-3 -10 -1 -18 5 -18 6 0 11 -17 11 -40 l0 -40 40 0 40 0 0 -45 0 -45 40 0 40
0 0 -40 0 -40 40 0 40 0 0 -42 c0 -24 4 -50 10 -58 5 -8 5 -19 0 -25 -16 -19
6 -38 39 -33 17 2 32 1 32 -4 1 -4 3 -21 4 -38 1 -16 3 -34 4 -39 0 -5 14 -8
29 -6 42 5 55 -7 50 -49 -4 -38 1 -41 60 -36 21 1 22 -2 22 -79 l0 -81 40 0
c40 0 40 0 40 -39 0 -41 8 -49 53 -46 26 2 27 0 27 -42 0 -23 5 -43 10 -43 13
0 9 -52 -5 -62 -6 -5 -5 -8 3 -8 7 0 22 9 34 20 12 11 26 20 31 20 5 0 -1 -9
-14 -20 -19 -15 -21 -19 -7 -20 9 0 19 6 21 13 6 12 9 -12 11 -70 0 -32 2 -33
43 -33 l43 0 1 -57 c1 -32 1 -69 1 -81 -1 -21 1 -22 15 -10 14 10 15 10 9 0
-5 -9 -3 -13 5 -11 43 5 49 0 49 -46 l0 -45 40 0 40 0 1 -42 c4 -123 0 -113
42 -116 35 -3 37 -5 37 -38 0 -35 13 -57 38 -62 6 -1 12 3 12 10 0 9 5 8 15
-2 8 -9 17 -45 21 -88 l7 -72 38 0 39 0 0 -80 0 -80 40 0 40 0 2 -47 c1 -27 2
-56 1 -65 0 -10 4 -18 9 -18 4 0 7 -4 6 -9 -2 -5 -1 -9 2 -8 3 0 15 -5 26 -11
20 -10 21 -9 19 18 -1 17 1 30 6 30 4 0 8 -10 7 -22 0 -13 0 -44 1 -70 l1 -48
40 0 40 0 1 -52 c1 -29 2 -65 2 -81 -1 -28 3 -30 50 -27 15 1 28 -3 28 -9 4
-29 7 -75 8 -116 l1 -45 40 0 40 0 0 -80 0 -80 40 0 40 0 0 -85 0 -85 40 0 40
0 0 -80 c0 -75 1 -80 21 -80 16 0 20 -4 15 -18 -6 -16 -5 -16 8 1 22 29 36 20
38 -25 0 -24 2 -54 3 -68 1 -14 3 -35 3 -48 2 -16 6 -21 15 -16 9 6 9 4 1 -7
-6 -8 -11 -24 -12 -37 -1 -19 4 -22 39 -22 l39 0 0 -85 0 -85 40 0 40 0 0 -85
c0 -90 0 -89 51 -85 26 1 26 0 29 -77 1 -43 2 -97 2 -120 l-1 -43 39 0 38 0 5
-92 c5 -77 11 -137 16 -157 1 -2 7 2 14 8 8 6 17 7 21 3 4 -4 13 -7 19 -7 12
0 14 -15 17 -161 l3 -82 38 2 39 1 1 -95 c2 -166 -1 -155 39 -155 l35 0 5
-125 5 -125 33 -2 c19 -1 35 -3 37 -5 2 -1 4 -70 6 -153 2 -82 5 -155 7 -161
2 -7 19 -11 38 -9 34 2 34 1 35 -39 1 -147 11 -292 19 -300 7 -7 14 -6 21 1
12 12 49 6 49 -8 0 -4 -9 -6 -20 -4 -11 2 -20 -1 -20 -6 0 -5 7 -9 16 -7 10 2
19 -3 22 -11 2 -8 0 -11 -5 -8 -5 3 -10 0 -10 -8 0 -8 4 -12 9 -9 4 3 8 -76 8
-176 0 -109 4 -179 9 -175 5 3 13 1 16 -5 4 -6 1 -9 -7 -8 -18 4 -19 -49 -1
-56 8 -3 11 -1 8 4 -3 6 -1 10 4 10 6 0 11 -4 11 -10 0 -12 22 -9 32 5 4 6 8
-108 8 -252 0 -204 3 -263 13 -263 9 0 9 -2 -1 -9 -8 -4 -14 -12 -14 -16 0 -4
6 -12 14 -16 10 -7 10 -9 0 -9 -7 0 -10 -5 -7 -10 5 -8 11 -7 21 1 9 7 14 8
13 3 -3 -19 2 -29 9 -17 4 7 13 9 20 5 8 -6 12 -92 12 -337 1 -297 3 -330 18
-342 9 -8 11 -12 5 -8 -7 3 -14 1 -14 -4 -5 -42 -3 -46 24 -45 15 0 27 -4 27
-9 0 -4 5 -5 10 -2 7 4 10 -78 11 -237 1 -134 3 -277 5 -318 1 -41 3 -83 3
-94 1 -15 4 -16 16 -6 9 8 15 9 15 2 0 -6 9 -9 20 -7 17 3 21 -1 20 -28 0 -18
2 -97 5 -177 2 -80 5 -175 6 -212 l1 -68 39 0 39 0 0 -128 c0 -89 4 -132 13
-141 6 -8 7 -11 1 -8 -7 4 -11 -5 -12 -24 -1 -29 1 -30 39 -26 l39 4 0 -89 0
-88 41 0 c32 0 40 -3 38 -17 -1 -10 -1 -46 0 -80 l1 -63 38 0 c37 0 39 -2 40
-32 1 -18 5 -55 10 -83 l7 -50 38 2 37 3 0 -45 0 -45 40 0 40 0 0 -40 0 -40
46 0 c27 0 43 -4 39 -10 -3 -5 -1 -10 5 -10 8 0 8 -6 0 -20 -8 -14 -8 -20 0
-20 6 0 9 -4 6 -8 -3 -5 47 -10 112 -11 64 -1 118 -4 120 -5 1 -2 3 -20 4 -40
l1 -36 96 -1 c213 -2 256 1 280 15 10 6 12 5 7 -2 -4 -7 -1 -12 8 -12 12 0 16
10 16 40 l0 40 133 2 c72 0 146 1 163 1 28 0 31 3 29 28 -1 15 1 32 4 38 4 5
42 11 86 13 l80 3 0 38 0 37 70 1 c38 1 76 1 83 0 8 -1 12 12 12 38 l0 39 48
6 c70 8 72 9 66 18 -3 4 -1 8 5 8 5 0 13 -4 16 -10 3 -5 10 -10 16 -10 12 0 6
37 -10 53 -8 8 -11 8 -9 0 2 -6 -1 -11 -6 -11 -5 0 -13 -7 -18 -16 -5 -9 -14
-16 -21 -16 -8 0 -7 4 2 9 12 8 12 12 2 24 -15 19 -5 25 37 21 17 -1 32 2 32
7 0 5 21 9 46 9 37 0 45 3 43 18 -5 55 -1 62 41 62 l40 0 0 40 0 40 40 0 40 0
0 40 c0 40 0 40 39 40 41 0 49 8 46 52 -2 29 0 30 55 32 22 1 25 6 28 43 3 43
3 43 43 43 l39 0 1 48 c1 26 1 51 0 55 -1 5 3 6 9 2 6 -3 8 -10 5 -15 -3 -5 7
-7 22 -5 16 2 32 4 36 4 4 1 7 7 6 14 -1 6 -1 40 0 75 l1 62 40 0 40 0 0 44
c0 24 5 46 10 48 6 2 12 13 12 25 2 20 28 22 28 1 0 -5 -4 -6 -10 -3 -5 3 -10
0 -10 -7 0 -8 11 -15 25 -16 14 -1 25 3 25 9 0 5 -5 7 -10 4 -5 -3 -10 -1 -10
4 0 6 5 11 10 11 6 0 10 7 10 15 0 8 -5 15 -11 15 -5 0 -7 -4 -4 -10 4 -6 -1
-7 -11 -3 -14 5 -12 8 10 20 15 8 26 22 25 31 -5 52 0 61 38 64 l36 3 4 80 c2
44 6 81 9 84 2 2 19 4 38 3 l33 -1 3 87 c4 161 1 147 38 148 25 1 30 -2 18 -8
-9 -5 -22 -6 -29 -2 -9 5 -9 4 -1 -5 9 -10 17 -10 33 -2 19 11 21 20 21 101
l0 90 40 0 40 0 1 53 c3 175 4 192 17 193 6 1 23 2 36 3 19 1 24 7 25 29 3
101 13 279 15 287 1 5 18 10 37 10 l34 1 3 194 c1 107 5 201 7 207 2 7 11 10
21 6 10 -4 15 -2 11 4 -3 5 0 10 8 10 8 0 11 -5 8 -10 -3 -5 0 -8 8 -5 16 5
16 -5 19 360 2 152 6 281 10 287 7 13 45 10 57 -4 5 -4 2 -5 -6 0 -10 6 -12 4
-6 -6 8 -12 6 -12 -9 0 -13 11 -19 12 -29 2 -9 -10 -9 -11 3 -6 11 4 16 -1 17
-16 2 -16 -1 -18 -12 -9 -10 8 -13 8 -11 -2 1 -7 5 -14 10 -15 5 -1 12 -6 15
-12 5 -8 13 -6 27 5 18 14 18 15 -6 9 l-25 -7 22 16 23 17 0 1211 c0 666 -3
1208 -7 1205 -3 -4 -15 -2 -26 4 -15 9 -18 8 -12 -2 6 -8 4 -11 -7 -7 -8 4
-15 0 -15 -8 0 -7 5 -10 11 -7 6 4 5 -1 -3 -10 -7 -9 -11 -18 -7 -18 10 -2 25
-6 34 -9 4 -1 10 -2 15 -1 4 0 7 -3 7 -8 0 -5 -15 -8 -32 -7 -40 3 -36 -45
-38 447 l-2 366 -36 1 c-34 1 -34 1 -17 -18 21 -23 29 -26 22 -7 -3 8 1 14 8
14 10 0 11 -5 4 -18 -5 -10 -6 -26 -3 -36 5 -17 5 -16 -6 1 -7 10 -20 27 -29
38 -13 16 -17 59 -22 276 -3 141 -9 271 -12 287 -3 17 -6 35 -6 40 -1 6 -6 3
-11 -5 -6 -10 -10 -11 -10 -2 0 6 -5 12 -10 12 -7 0 -7 -7 0 -21 7 -11 9 -23
6 -27 -11 -10 -37 -11 -30 -1 3 5 10 6 16 3 8 -5 9 -1 5 10 -4 10 -7 20 -7 22
0 3 -4 3 -9 0 -5 -4 -10 60 -11 151 -2 134 -6 251 -9 274 -1 3 -16 4 -34 3
-30 -3 -33 0 -35 27 -1 17 2 28 7 25 5 -3 11 1 14 9 4 9 1 12 -9 8 -7 -3 -15
-1 -15 3 -2 10 -7 186 -8 280 l-1 61 -38 -2 c-37 -1 -39 0 -39 29 0 17 -1 109
-2 204 l-1 172 -40 0 -40 0 -1 133 c-1 72 0 147 1 165 1 31 0 32 -39 32 l-41
0 -2 128 c0 70 -2 136 -3 147 -1 11 -3 28 -4 39 -1 14 -7 17 -25 14 -14 -3
-29 -2 -35 1 -5 4 -12 59 -14 124 -2 64 -6 120 -10 123 -3 3 -23 6 -44 7 -21
0 -29 2 -19 5 14 3 16 6 6 12 -15 9 -16 25 -20 188 -2 105 -3 112 -22 112 -18
0 -19 -2 -7 -17 13 -17 13 -17 -7 0 -11 9 -26 17 -32 17 -9 0 -12 32 -12 109
0 78 -4 111 -12 114 -10 4 -10 6 0 6 6 1 12 6 12 12 0 6 -12 8 -29 6 -15 -3
-33 -2 -39 2 -6 3 -12 49 -13 104 -2 53 -6 97 -10 97 -4 0 -9 7 -12 14 -4 11
-1 13 11 9 15 -6 15 -5 3 10 -13 17 -15 17 -33 0 -18 -16 -19 -16 -12 3 7 17
6 17 -9 5 -16 -12 -17 -9 -18 40 -1 30 0 71 1 92 2 37 -6 43 -47 38 -7 -1 -13
4 -13 11 0 9 -3 9 -10 -2 -7 -11 -10 -1 -11 35 -1 28 -3 64 -4 80 -2 17 -3 51
-4 78 l-1 47 -40 0 -40 0 0 84 c0 47 -4 88 -10 91 -5 3 -10 1 -10 -6 0 -7 -7
-4 -16 7 -8 10 -13 13 -9 7 4 -8 -1 -13 -13 -13 -17 0 -19 9 -21 88 -5 160 -1
147 -43 150 l-38 3 -1 72 c-1 40 -1 75 0 80 1 7 -2 8 -49 10 -22 2 -26 8 -30
47 -3 25 -5 61 -5 80 0 33 -2 35 -40 40 -44 6 -41 -2 -44 116 l-1 51 -40 -4
-40 -4 0 85 0 86 -40 0 -40 0 0 80 0 80 -40 0 -40 0 -1 48 c-3 124 -1 117 -34
118 -16 1 -33 2 -37 3 -4 1 -10 37 -14 81 l-7 80 -38 0 -39 0 -1 48 c-3 103
-4 105 -21 108 -15 2 -16 -1 -7 -18 8 -16 8 -19 -1 -13 -8 5 -11 3 -8 -6 3 -8
11 -13 17 -11 7 1 10 -2 6 -8 -3 -6 -11 -8 -16 -5 -5 4 -9 0 -9 -7 0 -10 -2
-10 -9 0 -4 8 -12 13 -17 13 -9 -1 -10 10 -13 104 l-1 45 -40 0 -40 0 -1 48
c-1 26 -1 62 -1 80 -1 31 -2 32 -39 32 -39 0 -39 0 -39 40 0 42 -4 46 -55 54
-16 2 -32 5 -34 5 -2 1 2 7 8 15 9 11 9 20 2 35 -6 11 -11 38 -11 60 l0 41
-40 0 -40 0 0 40 c0 42 -7 46 -62 41 -16 -2 -18 8 -18 78 l0 81 -40 0 -40 0 0
45 0 45 -40 0 -40 0 0 40 c0 22 -3 40 -8 40 -4 0 -6 18 -4 40 l4 40 -41 0 -41
0 0 40 0 40 -40 0 -40 0 0 45 c0 42 -2 45 -27 46 -16 1 -34 1 -40 0 -9 -1 -13
12 -13 38 0 23 -7 46 -16 55 -13 14 -13 16 -1 16 17 0 12 36 -6 47 -6 4 -7 1
-2 -7 6 -10 4 -11 -6 -4 -8 5 -18 9 -24 10 -5 0 -15 2 -22 2 -7 1 -11 17 -10
40 2 37 2 37 -40 40 -43 3 -43 3 -43 43 0 40 -2 42 -52 41 -26 -1 -28 2 -28
44 l0 44 -40 0 -40 0 0 40 0 40 -41 0 -41 0 4 40 c2 26 -1 41 -10 45 -10 3
-10 10 -2 24 7 13 7 22 0 26 -6 4 -8 11 -5 16 4 5 -12 9 -34 9 l-41 0 0 40 c0
40 0 40 -39 40 -40 0 -40 0 -43 43 -3 41 -3 42 -40 42 l-38 -1 0 43 0 43 -40
0 -40 0 0 40 0 40 -40 0 c-42 0 -45 4 -40 57 1 19 -4 22 -42 25 l-43 3 -3 43
c-3 38 -6 43 -25 42 -53 -5 -57 -2 -57 40 l0 40 -40 0 -40 0 0 40 0 40 -40 0
-40 0 0 40 0 40 -40 0 c-22 0 -41 5 -41 10 -1 6 -2 22 -3 38 -1 24 -5 28 -41
32 -38 5 -40 7 -45 45 -5 38 -7 40 -40 40 -34 0 -35 2 -38 41 -3 39 -4 41 -38
42 -47 2 -53 7 -48 39 6 31 -8 43 -53 43 -26 0 -33 4 -33 19 0 11 -6 22 -12
24 -10 4 -10 6 0 6 6 1 12 8 12 16 0 18 -16 20 -23 3 -4 -10 -6 -10 -6 0 -1 6
-9 12 -18 11 -11 0 -13 -3 -5 -6 6 -2 12 -10 12 -16 0 -6 -11 0 -24 12 -13 12
-32 22 -42 21 -40 -5 -54 0 -54 19 0 11 6 22 13 24 10 4 10 6 0 6 -7 1 -13 8
-13 16 0 11 -11 15 -40 15 l-40 0 0 40 0 40 -40 0 -40 0 0 40 0 40 -44 0 -44
0 2 40 2 40 -43 0 -43 0 0 39 0 39 -80 7 c-66 6 -81 10 -79 24 5 54 0 61 -41
61 l-40 0 0 40 0 40 -45 0 -45 0 0 40 0 40 -42 1 c-24 1 -59 2 -79 2 -28 1
-36 5 -34 16 2 9 4 18 4 20 1 2 10 -4 21 -14 15 -14 20 -15 20 -4 0 11 2 11
10 -1 5 -8 10 -10 11 -5 0 6 2 18 4 28 2 9 -1 15 -6 11 -5 -3 -9 -1 -9 5 0 5
6 11 13 14 6 2 -6 4 -28 4 -22 0 -59 0 -82 1 l-43 2 0 40 c0 22 -4 41 -10 41
-5 1 -19 3 -30 4 -11 1 -26 3 -34 4 -9 1 -14 12 -14 30 1 40 -10 53 -42 47
-16 -2 -31 -1 -34 2 -4 3 -24 5 -46 5 -40 -1 -40 0 -38 36 3 36 3 36 -39 39
-43 3 -43 3 -43 43 l0 39 -45 0 -45 0 0 39 0 38 -47 3 c-116 5 -108 1 -113 46
-5 40 -6 41 -41 40 -26 -2 -40 3 -49 17 -7 12 -7 17 -1 12 7 -4 11 3 11 18 0
24 -4 25 -80 32 l-80 7 0 39 0 39 -45 0 c-45 0 -50 4 -45 44 1 13 -2 16 -12
10 -11 -6 -11 -5 0 9 12 14 11 16 -10 15 -12 0 -49 0 -80 1 l-58 1 0 39 0 39
-81 7 -81 7 4 34 c4 37 -4 44 -58 44 -33 0 -34 1 -34 38 0 36 -2 38 -32 39
-18 0 -54 1 -80 2 l-48 1 0 40 0 39 -82 3 -83 3 2 38 c1 37 1 37 -38 37 -22 0
-50 5 -61 11 -11 6 -18 7 -15 2 3 -4 -7 -8 -22 -8 -24 -1 -27 3 -30 34 -2 44
-4 46 -49 47 -20 1 -39 3 -42 4 -3 1 -20 1 -39 0 -32 -2 -33 0 -29 29 3 18 -1
36 -7 41 -7 6 -47 11 -89 11 l-76 1 0 39 0 39 -42 1 c-24 1 -60 0 -80 -1 -38
-2 -38 -2 -38 39 l0 41 -85 0 -85 0 0 40 0 40 -47 1 c-27 1 -64 2 -83 3 -20 0
-36 6 -36 14 -1 6 -2 17 -3 23 0 5 -7 7 -13 4 -7 -4 -4 1 6 9 23 18 23 18 -26
20 -20 1 -40 5 -44 9 -4 4 -43 7 -86 7 l-78 0 0 40 c0 27 -4 40 -12 39 -7 -1
-64 -1 -125 0 l-113 1 3 38 2 37 -126 5 -126 5 1 38 1 37 -162 0 c-123 0 -163
3 -164 13 -1 6 0 24 1 40 l2 27 -84 1 c-187 2 -322 10 -329 20 -3 6 -4 21 -2
33 5 22 1 24 -54 28 -32 3 -148 6 -258 8 -295 4 -271 1 -267 31 2 14 -4 31
-12 39 -11 8 -16 9 -16 2 0 -7 -7 -9 -17 -5 -11 5 -14 3 -8 -6 5 -8 -1 -7 -17
3 -21 13 -90 15 -583 14 -308 -1 -570 -3 -583 -6z m1228 -32 c0 -5 -4 -10 -10
-10 -5 0 -10 5 -10 10 0 6 5 10 10 10 6 0 10 -4 10 -10z m-38 -7 c-6 -2 -9
-10 -6 -15 4 -7 2 -8 -5 -4 -13 9 -5 26 12 25 9 0 8 -2 -1 -6z m-2342 -225 c0
-5 -6 -8 -12 -8 -10 0 -9 -3 1 -9 19 -12 2 -36 -26 -37 -13 -1 -23 3 -23 7 0
5 6 9 13 9 8 0 7 4 -3 10 -9 6 -10 10 -3 10 6 0 15 -4 18 -10 3 -5 11 -10 17
-10 6 0 3 9 -7 20 -10 11 -22 17 -26 14 -5 -3 -9 -1 -9 4 0 5 14 9 30 8 17 0
30 -4 30 -8z m4403 -275 c-3 -7 -6 -13 -8 -13 -2 0 -5 6 -8 13 -3 8 1 14 8 14
7 0 11 -6 8 -14z m1712 -884 c-4 -5 -12 -9 -18 -8 -9 0 -8 2 1 6 6 2 9 10 6
15 -4 7 -2 8 5 4 6 -4 9 -12 6 -17z m-8417 -183 c-2 -17 -8 -22 -29 -22 -25 0
-27 2 -17 20 22 41 49 43 46 2z m8945 -160 c4 -10 1 -13 -8 -9 -8 3 -12 9 -9
14 7 12 11 11 17 -5z m560 -391 c-6 21 -5 20 15 -6 10 -14 9 -16 -5 -14 -10 1
-26 5 -36 10 -14 6 -16 10 -6 16 8 4 18 1 26 -9 12 -15 12 -15 6 3z m-11593
-80 c0 -2 -9 -3 -19 -2 -11 0 -18 5 -15 9 4 6 34 0 34 -7z m23 -10 c-7 -21
-12 -19 -10 4 0 11 5 18 9 15 4 -3 5 -11 1 -19z m642 15 c-3 -5 -1 -10 4 -10
6 0 11 -5 11 -12 0 -6 -3 -8 -7 -4 -4 3 -12 -3 -18 -15 -11 -19 -13 -19 -18
-5 -4 10 -3 15 3 11 6 -3 11 -1 11 4 1 6 3 16 4 21 1 6 3 12 4 15 0 3 4 5 7 5
3 0 2 -4 -1 -10z m-40 -26 c-13 -14 -14 -19 -3 -25 9 -5 6 -8 -10 -6 -12 0
-22 5 -22 10 0 13 24 36 38 37 10 0 9 -5 -3 -16z m-621 -13 c4 -5 -3 -7 -14
-4 -23 6 -26 13 -6 13 8 0 17 -4 20 -9z m681 -11 c3 -5 1 -10 -4 -10 -6 0 -11
5 -11 10 0 6 2 10 4 10 3 0 8 -4 11 -10z m11825 -640 c8 -5 12 -11 10 -14 -3
-2 -14 2 -24 10 -22 15 -10 19 14 4z m-14290 -470 c8 -5 11 -10 5 -10 -5 0
-17 5 -25 10 -8 5 -10 10 -5 10 6 0 17 -5 25 -10z m3250 6 c0 -2 -7 -7 -16
-10 -8 -3 -12 -2 -9 4 6 10 25 14 25 6z m-3260 -32 c0 -2 -9 0 -20 6 -11 6
-20 13 -20 16 0 2 9 0 20 -6 11 -6 20 -13 20 -16z m3200 6 c0 -5 -5 -10 -11
-10 -5 0 -7 5 -4 10 3 6 8 10 11 10 2 0 4 -4 4 -10z m-3112 -54 c-10 -11 -16
-11 -28 -2 -13 10 -13 9 -1 -7 10 -13 17 -15 27 -6 18 15 18 2 0 -16 -12 -12
-16 -11 -31 5 -21 23 -15 35 20 38 21 1 24 0 13 -12z m1937 -115 c3 -5 0 -13
-6 -17 -7 -4 -9 -3 -5 4 3 5 0 13 -6 15 -9 4 -10 6 -1 6 6 1 14 -3 18 -8z
m4235 -451 c0 -5 -2 -10 -4 -10 -3 0 -8 5 -11 10 -3 6 -1 10 4 10 6 0 11 -4
11 -10z m-26 -9 c4 -5 -3 -7 -14 -4 -23 6 -26 13 -6 13 8 0 17 -4 20 -9z
m9190 -9 c3 -5 -1 -9 -9 -9 -8 0 -12 4 -9 9 3 4 7 8 9 8 2 0 6 -4 9 -8z
m-9176 -22 c-7 -10 -14 -17 -17 -15 -4 4 18 35 25 35 2 0 -1 -9 -8 -20z m9847
-799 c3 -5 2 -12 -3 -15 -5 -3 -9 1 -9 9 0 17 3 19 12 6z m-6082 -1561 c-31
-13 -29 -24 3 -16 17 5 23 3 19 -4 -7 -11 -38 -14 -48 -4 -12 12 6 34 27 33
21 0 21 0 -1 -9z m687 -575 c0 -7 -30 -13 -34 -7 -3 4 4 9 15 9 10 1 19 0 19
-2z m56 -84 c-8 -12 -36 -3 -36 11 0 6 8 4 17 -3 15 -12 16 -12 9 6 -5 15 -4
17 5 8 6 -6 8 -16 5 -22z m32 4 c-3 -3 -9 2 -12 12 -6 14 -5 15 5 6 7 -7 10
-15 7 -18z m-50 -40 c-3 -3 -9 2 -12 12 -6 14 -5 15 5 6 7 -7 10 -15 7 -18z
m47 15 c3 -5 2 -10 -4 -10 -5 0 -13 5 -16 10 -3 6 -2 10 4 10 5 0 13 -4 16
-10z m6967 -914 c7 4 8 2 4 -5 -9 -14 -36 3 -36 23 0 6 5 3 11 -7 6 -9 15 -14
21 -11z m160 -480 c3 3 9 1 12 -4 8 -14 -18 -9 -36 6 -8 6 -19 8 -23 4 -5 -4
-5 -1 -1 6 7 11 11 10 25 -2 10 -9 20 -13 23 -10z m-5737 -46 c3 -5 1 -10 -4
-10 -6 0 -11 5 -11 10 0 6 2 10 4 10 3 0 8 -4 11 -10z m722 -1000 c-14 -11
-28 -20 -32 -20 -10 0 38 39 49 40 5 0 -3 -9 -17 -20z m148 -248 c-3 -3 -11 0
-18 7 -9 10 -8 11 6 5 10 -3 15 -9 12 -12z m30 8 c3 -5 1 -10 -4 -10 -6 0 -11
5 -11 10 0 6 2 10 4 10 3 0 8 -4 11 -10z m6 -43 c-10 -9 -11 -8 -5 6 3 10 9
15 12 12 3 -3 0 -11 -7 -18z m486 -778 c-9 -5 -14 -18 -12 -28 2 -14 -2 -19
-14 -18 -12 1 -17 9 -17 27 0 21 4 26 30 27 22 1 26 -1 13 -8z m4928 -379 c3
-5 1 -10 -4 -10 -6 0 -11 5 -11 10 0 6 2 10 4 10 3 0 8 -4 11 -10z m56 -577
c13 -17 13 -17 -6 -3 -11 8 -22 16 -24 17 -2 2 0 3 6 3 6 0 17 -8 24 -17z
m-4431 -203 c-13 -11 -25 -20 -28 -20 -3 0 3 9 13 20 10 11 23 20 28 20 6 0 0
-9 -13 -20z m30 -11 c-13 -8 -13 -10 0 -19 9 -6 10 -10 3 -10 -19 0 -26 20
-12 36 6 8 14 12 18 9 3 -3 -1 -10 -9 -16z m-30 -19 c0 -5 -5 -10 -11 -10 -5
0 -7 5 -4 10 3 6 8 10 11 10 2 0 4 -4 4 -10z m4546 -473 c3 -20 -12 -32 -21
-17 -4 6 -11 8 -16 4 -6 -3 -5 3 3 15 15 24 30 23 34 -2z m-4132 -579 c-3 -5
-10 -6 -15 -3 -5 4 -9 1 -9 -6 0 -7 -3 -10 -6 -6 -9 9 3 24 20 24 8 0 13 -4
10 -9z m26 -12 c0 -3 -4 -8 -10 -11 -5 -3 -10 -1 -10 4 0 6 5 11 10 11 6 0 10
-2 10 -4z m404 -1608 c-3 -4 -9 -8 -15 -8 -5 0 -9 4 -9 8 0 5 7 9 15 9 8 0 12
-4 9 -9z m16 -22 c0 -2 -7 -9 -15 -16 -13 -11 -14 -10 -9 4 5 14 24 23 24 12z
m3690 -162 c0 -8 -19 -13 -24 -6 -3 5 1 9 9 9 8 0 15 -2 15 -3z m-3617 -387
c3 -8 -1 -14 -8 -14 -7 0 -11 6 -8 14 3 7 6 13 8 13 2 0 5 -6 8 -13z m3357
-943 c0 -8 -19 -13 -24 -6 -3 5 1 9 9 9 8 0 15 -2 15 -3z m-436 -946 c-3 -4
-9 -8 -15 -8 -5 0 -9 4 -9 8 0 5 7 9 15 9 8 0 12 -4 9 -9z m-2677 -23 c0 -8
-4 -12 -9 -9 -5 3 -6 10 -3 15 9 13 12 11 12 -6z m2538 -234 c-9 -8 -36 -10
-30 -2 2 4 11 8 20 8 8 0 13 -3 10 -6z m-2459 -100 c-4 -5 0 -12 6 -14 8 -3 6
-6 -4 -6 -18 -1 -24 10 -11 22 9 10 15 8 9 -2z m-36 -16 c0 -8 -4 -15 -10 -15
-5 0 -7 7 -4 15 4 8 8 15 10 15 2 0 4 -7 4 -15z m1927 -490 c0 -8 -4 -12 -9
-9 -5 3 -6 10 -3 15 9 13 12 11 12 -6z m-1417 -205 c8 -5 11 -10 5 -10 -5 0
-17 5 -25 10 -8 5 -10 10 -5 10 6 0 17 -5 25 -10z m880 0 c-8 -5 -13 -10 -10
-11 3 0 13 -2 23 -4 12 -2 17 1 14 9 -3 7 1 13 8 13 8 0 13 -8 12 -18 -1 -10
-5 -15 -9 -13 -4 3 -8 0 -8 -5 0 -6 5 -11 11 -11 5 0 7 -5 3 -11 -5 -8 -9 -8
-14 1 -8 13 -19 13 -36 -1 -7 -5 -11 -3 -11 6 0 8 4 12 9 9 4 -3 8 -1 8 5 0 5
-5 13 -10 16 -13 8 -3 25 13 25 7 0 6 -4 -3 -10z m-855 -20 c-3 -5 -12 -10
-18 -10 -7 0 -6 4 3 10 19 12 23 12 15 0z m-31 -15 c3 -9 12 -12 23 -8 14 4
15 3 7 -6 -9 -10 -16 -10 -33 1 -22 13 -28 28 -12 28 5 0 11 -7 15 -15z m590
-74 c-7 -8 -54 -9 -49 -1 2 3 15 6 29 6 14 0 23 -2 20 -5z"/>
<path d="M5282 18140 c-7 -11 -8 -20 -3 -20 9 0 24 30 18 36 -1 2 -8 -6 -15
-16z"/>
<path d="M14965 9119 c-4 -6 -5 -12 -2 -15 2 -3 7 2 10 11 7 17 1 20 -8 4z"/>
<path d="M20075 7471 c-3 -5 -2 -12 3 -15 5 -3 9 1 9 9 0 17 -3 19 -12 6z"/>
<path d="M8692 19714 c1 -17 7 -31 14 -31 14 0 13 15 -4 42 -11 18 -12 17 -10
-11z"/>
<path d="M7296 19395 c-3 -8 -1 -15 4 -15 6 0 10 7 10 15 0 8 -2 15 -4 15 -2
0 -6 -7 -10 -15z"/>
<path d="M7330 19390 c0 -5 5 -10 11 -10 5 0 7 5 4 10 -3 6 -8 10 -11 10 -2 0
-4 -4 -4 -10z"/>
<path d="M12895 18811 c-3 -5 -2 -12 3 -15 5 -3 9 1 9 9 0 17 -3 19 -12 6z"/>
<path d="M13478 18453 c7 -3 16 -2 19 1 4 3 -2 6 -13 5 -11 0 -14 -3 -6 -6z"/>
<path d="M5579 18419 c-11 -8 -10 -9 5 -7 10 2 21 -2 23 -9 3 -7 -3 -11 -15
-8 -11 2 -19 -2 -19 -11 0 -11 3 -11 16 -1 12 10 14 9 9 -4 -4 -9 -1 -16 8
-16 7 0 11 4 8 9 -3 5 -1 14 5 21 14 17 -20 39 -40 26z"/>
<path d="M4917 17901 c-4 -17 -3 -21 5 -13 5 5 8 16 6 23 -3 8 -7 3 -11 -10z"/>
<path d="M14480 17830 c0 -5 5 -10 11 -10 5 0 7 5 4 10 -3 6 -8 10 -11 10 -2
0 -4 -4 -4 -10z"/>
<path d="M14455 17810 c-7 -12 19 -24 37 -17 7 3 3 6 -10 6 -13 1 -20 5 -17
11 3 6 4 10 1 10 -3 0 -8 -5 -11 -10z"/>
<path d="M2055 17590 c3 -5 8 -10 11 -10 2 0 4 5 4 10 0 6 -5 10 -11 10 -5 0
-7 -4 -4 -10z"/>
<path d="M3321 17514 c0 -11 3 -14 6 -6 3 7 2 16 -1 19 -3 4 -6 -2 -5 -13z"/>
<path d="M3297 17501 c-4 -17 -3 -21 5 -13 5 5 8 16 6 23 -3 8 -7 3 -11 -10z"/>
<path d="M3795 17509 c-12 -6 -27 -20 -34 -32 -13 -20 -11 -20 15 3 16 14 33
28 39 32 12 10 5 9 -20 -3z"/>
<path d="M3373 17485 c0 -8 4 -12 9 -9 5 3 6 10 3 15 -9 13 -12 11 -12 -6z"/>
<path d="M3331 17474 c0 -11 3 -14 6 -6 3 7 2 16 -1 19 -3 4 -6 -2 -5 -13z"/>
<path d="M3300 17470 c-9 -6 -10 -10 -3 -10 6 0 15 5 18 10 8 12 4 12 -15 0z"/>
<path d="M15133 17335 c0 -8 4 -12 9 -9 5 3 6 10 3 15 -9 13 -12 11 -12 -6z"/>
<path d="M15628 16893 c7 -3 16 -2 19 1 4 3 -2 6 -13 5 -11 0 -14 -3 -6 -6z"/>
<path d="M3486 16192 c-3 -6 -1 -14 5 -17 14 -9 20 -2 10 14 -6 8 -11 9 -15 3z"/>
<path d="M2874 16012 c4 -3 14 -7 22 -8 9 -1 13 0 10 4 -4 3 -14 7 -22 8 -9 1
-13 0 -10 -4z"/>
<path d="M6993 15934 c0 -8 3 -12 5 -9 3 3 11 0 18 -6 9 -7 12 -6 10 7 -3 21
-33 28 -33 8z"/>
<path d="M16927 15583 c3 -7 6 -13 8 -13 2 0 5 6 8 13 3 8 -1 14 -8 14 -7 0
-11 -6 -8 -14z"/>
<path d="M4935 15176 c-11 -7 -24 -15 -30 -17 -5 -2 -9 -7 -8 -11 2 -4 -4 -5
-12 -2 -8 4 -15 1 -15 -6 0 -6 -4 -9 -8 -6 -5 3 -9 -1 -9 -9 0 -8 4 -15 9 -15
4 0 7 -4 6 -9 -2 -5 6 -17 17 -26 11 -9 14 -13 6 -9 -9 5 -12 3 -7 -4 11 -18
36 -15 30 3 -4 8 -2 15 4 15 6 0 8 9 5 20 -3 12 0 20 8 20 7 0 9 3 6 7 -4 3
-2 12 4 20 9 10 8 13 -2 13 -8 0 -5 6 7 15 24 18 15 20 -11 1z"/>
<path d="M8950 15039 c0 -5 5 -7 10 -4 6 3 10 8 10 11 0 2 -4 4 -10 4 -5 0
-10 -5 -10 -11z"/>
<path d="M8977 15037 c-3 -8 1 -14 8 -14 7 0 11 6 8 14 -3 7 -6 13 -8 13 -2 0
-5 -6 -8 -13z"/>
<path d="M8940 14996 c0 -2 9 -6 20 -9 11 -3 18 -1 14 4 -5 9 -34 13 -34 5z"/>
<path d="M17770 14548 c0 -4 4 -8 9 -8 6 0 12 4 15 8 3 5 -1 9 -9 9 -8 0 -15
-4 -15 -9z"/>
<path d="M10350 14129 c0 -5 5 -7 10 -4 6 3 10 8 10 11 0 2 -4 4 -10 4 -5 0
-10 -5 -10 -11z"/>
<path d="M18155 13901 c-3 -6 0 -11 7 -11 8 0 9 -3 3 -8 -15 -11 -16 -29 -1
-29 8 0 12 10 10 25 -3 29 -10 37 -19 23z"/>
<path d="M11030 13630 c-8 -5 -10 -10 -5 -10 6 0 17 5 25 10 8 5 11 10 5 10
-5 0 -17 -5 -25 -10z"/>
<path d="M10995 13610 c3 -5 8 -10 11 -10 2 0 4 5 4 10 0 6 -5 10 -11 10 -5 0
-7 -4 -4 -10z"/>
<path d="M11028 13593 c7 -3 16 -2 19 1 4 3 -2 6 -13 5 -11 0 -14 -3 -6 -6z"/>
<path d="M3015 13466 c0 -19 3 -32 7 -30 4 3 8 0 8 -5 0 -8 -106 -11 -335 -11
l-335 0 -1 -22 c-1 -13 -1 -31 0 -40 2 -16 -10 -18 -122 -18 -130 0 -146 -5
-131 -45 4 -8 1 -15 -6 -15 -6 0 -9 -4 -6 -8 2 -4 -10 -8 -27 -9 -18 0 -69 -2
-114 -3 -89 -2 -86 0 -86 -61 0 -13 -15 -18 -66 -24 -36 -4 -74 -7 -84 -6 -15
0 -18 -7 -15 -37 3 -37 3 -37 -39 -40 -43 -3 -43 -3 -43 -43 l0 -39 -45 0 -45
0 0 -40 0 -40 -40 0 -40 0 0 -40 0 -40 -40 0 -40 0 0 -45 c0 -43 -1 -45 -27
-44 -53 3 -53 4 -53 -81 l0 -80 -40 0 -40 0 -1 -57 c-1 -97 -8 -217 -12 -238
-2 -11 0 -29 5 -39 9 -16 7 -18 -6 -13 -12 5 -15 3 -9 -6 10 -16 13 -42 18
-177 3 -63 7 -120 9 -126 3 -7 19 -10 40 -8 33 4 35 3 34 -25 -1 -22 -5 -28
-17 -24 -12 3 -12 2 1 -7 13 -8 18 -24 18 -61 l0 -50 40 4 40 4 0 -43 c0 -46
3 -49 58 -44 19 1 22 -3 22 -39 l0 -41 40 0 40 0 0 -40 0 -40 45 0 45 0 0 -39
0 -39 79 -7 80 -7 3 -36 c3 -41 -6 -38 121 -41 l47 -1 0 -36 c0 -21 4 -33 10
-29 6 3 10 3 10 -2 0 -4 69 -10 153 -11 83 -2 155 -6 159 -8 3 -2 3 -18 -2
-34 -5 -17 -6 -31 -2 -31 26 -5 39 -3 51 6 11 7 13 7 8 -2 -11 -18 1259 -19
1281 -1 11 9 13 9 9 1 -10 -15 182 -14 202 1 11 8 13 8 7 -1 -5 -9 -1 -13 11
-13 11 0 25 6 32 13 11 10 12 9 6 -1 -5 -10 -1 -13 16 -12 13 1 228 2 477 1
425 -1 453 -2 450 -18 -2 -13 3 -17 17 -15 16 2 17 1 5 -7 -8 -5 -18 -7 -24
-4 -5 4 -7 -1 -3 -11 4 -10 7 -20 7 -23 0 -3 8 1 17 8 11 10 14 10 9 2 -4 -8
-1 -13 9 -13 10 0 13 5 9 13 -6 9 -5 9 7 0 11 -9 78 -13 225 -15 l209 -3 -1
-37 0 -38 50 -1 c28 -1 76 -2 106 -4 30 -2 83 -4 116 -4 57 -1 61 -3 61 -23 1
-52 2 -55 36 -55 17 0 73 -1 123 -1 l91 -2 -2 -36 c0 -19 3 -38 7 -40 4 -3 8
0 8 7 0 7 4 8 13 2 6 -5 57 -10 112 -12 55 -2 102 -5 105 -7 2 -3 3 -20 2 -38
l-3 -34 118 -1 c64 -1 119 -4 122 -7 3 -2 4 -20 3 -39 l-3 -35 63 -1 c35 -1
73 -1 86 -2 19 0 22 -5 22 -38 0 -36 2 -39 28 -40 15 -1 32 -2 37 -4 6 -1 31
-3 57 -3 46 -2 47 -2 45 -34 -2 -26 2 -33 16 -32 9 1 17 -2 17 -6 0 -4 6 -8
13 -7 6 0 36 -1 65 -1 l52 -2 0 -40 0 -40 80 0 80 0 0 -40 0 -39 83 -3 82 -3
0 -32 c0 -41 8 -48 51 -44 35 3 40 -6 35 -61 -1 -10 2 -18 8 -18 5 0 9 15 8
32 -2 38 18 44 48 14 19 -18 19 -18 -5 -11 -23 7 -24 7 -10 -11 23 -29 32 -34
73 -34 37 0 37 0 37 -40 l0 -40 45 -1 c65 -2 64 -1 84 -35 14 -23 15 -31 5
-31 -7 0 -11 4 -8 9 3 4 -3 8 -13 8 -12 0 -14 3 -6 8 7 4 9 13 4 21 -10 16
-18 4 -17 -29 1 -21 6 -24 36 -26 131 -7 120 -3 120 -46 0 -38 0 -38 40 -38
l40 0 0 -40 c0 -31 4 -40 18 -41 9 -1 24 -2 32 -3 8 -2 23 -3 34 -4 15 -2 16
-5 6 -17 -10 -12 -10 -15 0 -15 10 0 10 -3 0 -15 -10 -12 -9 -16 4 -21 9 -3
25 -4 36 -1 11 3 23 1 26 -4 3 -5 24 -9 48 -9 41 0 43 -1 41 -27 -3 -45 5 -53
46 -53 39 0 39 0 39 -40 l0 -40 40 0 40 0 0 -40 c0 -37 2 -40 28 -41 15 -1 32
-1 39 0 7 1 13 -15 15 -41 3 -42 4 -43 43 -48 36 -4 40 -8 41 -32 1 -16 2 -32
3 -38 0 -5 19 -10 41 -10 l40 0 0 -40 0 -40 40 0 40 0 0 -40 0 -40 40 0 40 0
0 -45 0 -45 40 0 40 0 0 -40 c0 -37 2 -40 30 -41 53 -2 55 -3 51 -29 -1 -14
-7 -28 -13 -31 -5 -4 -3 -9 6 -12 11 -4 16 -19 16 -48 l0 -41 40 4 40 4 0 -43
0 -43 40 0 40 0 0 -45 0 -45 40 0 40 0 0 -40 0 -40 40 0 c37 0 40 -2 40 -27 0
-16 2 -52 6 -80 l7 -53 38 0 c37 0 38 0 41 -42 3 -42 4 -43 38 -43 34 0 35 -1
38 -42 2 -24 8 -43 13 -43 6 0 7 -6 3 -12 -6 -10 -4 -10 7 0 16 15 29 16 29 1
0 -5 -4 -8 -9 -5 -5 3 -12 -1 -15 -10 -3 -8 -10 -12 -16 -9 -5 3 -7 0 -5 -7
10 -26 39 -37 54 -20 12 12 11 13 -6 8 -14 -4 -20 -2 -20 9 0 10 7 14 21 10
12 -3 16 -2 9 1 -7 3 -9 12 -6 20 8 22 22 17 21 -8 0 -13 0 -49 1 -80 l1 -58
39 0 c40 0 40 0 43 -42 2 -32 7 -43 20 -43 9 0 20 -4 24 -8 4 -4 13 -2 20 4 9
8 14 -9 19 -75 l7 -85 37 2 c36 2 36 2 39 -40 3 -39 10 -48 35 -44 4 0 7 -3 7
-9 0 -5 5 -10 11 -10 5 0 7 5 3 11 -4 7 -1 10 7 7 10 -3 15 -26 17 -79 2 -40
5 -75 7 -77 2 -2 20 -4 39 -4 36 0 36 0 37 -44 1 -40 4 -84 8 -116 1 -9 4 -8
11 2 6 9 10 10 10 3 0 -7 10 -10 25 -7 26 5 30 -6 25 -63 -1 -13 3 -23 8 -23
6 0 9 -11 8 -25 -2 -13 1 -22 6 -19 5 3 7 13 6 22 -2 12 5 18 26 20 17 2 26 0
22 -7 -4 -5 -14 -7 -23 -4 -13 5 -15 2 -9 -21 4 -15 3 -25 -2 -22 -4 2 -14 1
-21 -3 -9 -6 -10 -11 -2 -15 6 -4 11 -1 11 6 0 9 3 9 10 -2 9 -13 10 -13 10 0
0 13 1 13 11 0 8 -12 9 -11 5 5 -7 24 8 53 18 36 4 -6 3 -11 -3 -11 -7 0 -7
-8 -1 -26 6 -14 10 -43 10 -65 0 -32 3 -40 18 -38 61 6 62 5 62 -81 l0 -80 40
0 40 0 0 -80 c0 -85 0 -84 53 -80 26 1 27 0 28 -52 2 -118 0 -113 42 -116 33
-3 37 -6 38 -30 0 -36 9 -114 13 -127 2 -6 20 -10 40 -9 l36 2 1 -109 c1 -60
2 -114 3 -121 0 -6 13 -12 29 -12 18 -1 26 3 23 11 -3 7 1 10 10 6 11 -4 14
-26 14 -94 0 -96 -1 -94 58 -89 21 1 22 -2 24 -87 2 -131 2 -137 12 -151 4 -8
16 -12 26 -9 32 8 39 -7 42 -87 1 -42 5 -79 9 -82 4 -2 5 -19 2 -37 -4 -32 -2
-34 26 -35 45 -1 53 -9 51 -56 -1 -22 -1 -76 -1 -118 l1 -78 40 0 40 0 0 -125
0 -125 39 0 38 0 2 -161 c2 -162 5 -189 23 -189 5 0 6 5 2 11 -5 8 -1 8 13 0
13 -6 23 -7 29 -1 7 7 10 1 10 -15 0 -18 -3 -21 -12 -14 -8 6 -14 7 -18 0 -4
-5 2 -12 13 -16 18 -5 19 -18 21 -173 1 -92 4 -189 6 -217 2 -27 4 -67 4 -87
0 -27 5 -38 15 -38 8 0 15 5 15 10 0 6 5 10 11 10 5 0 7 -4 4 -10 -3 -5 1 -10
9 -10 13 0 16 -14 17 -72 0 -40 2 -125 4 -188 2 -63 4 -144 4 -179 1 -57 3
-63 20 -58 14 3 18 1 14 -9 -3 -8 -9 -12 -13 -9 -5 3 -12 0 -16 -6 -4 -8 -3
-9 4 -5 7 4 12 2 12 -3 0 -6 -6 -11 -12 -11 -10 0 -9 -3 1 -9 11 -7 11 -9 0
-13 -8 -3 4 -4 26 -3 l40 1 5 -210 c5 -198 6 -211 24 -208 12 2 16 -1 11 -10
-6 -10 -5 -10 5 -1 7 6 19 9 26 6 11 -4 14 -39 14 -169 l0 -164 39 0 39 0 1
-116 c1 -64 5 -124 10 -132 5 -9 5 -26 1 -38 -6 -16 -5 -24 5 -27 10 -4 13 3
11 26 -3 29 0 32 24 32 15 1 27 -5 27 -12 0 -9 -4 -10 -12 -3 -12 10 -25 4
-25 -12 0 -5 4 -7 9 -4 5 3 13 0 18 -7 9 -11 11 -33 18 -149 3 -55 2 -54 39
-50 27 3 34 0 39 -17 3 -12 1 -24 -4 -27 -5 -3 -5 -13 1 -24 6 -11 10 -23 9
-27 -1 -4 -1 -23 0 -40 1 -32 3 -33 42 -33 32 0 40 -3 38 -17 -1 -10 -1 -46 0
-80 l1 -63 40 0 c40 0 40 0 40 -39 0 -41 9 -49 50 -46 23 1 25 -2 28 -44 7
-115 3 -106 47 -111 38 -5 40 -7 45 -44 5 -39 31 -58 46 -34 4 7 9 7 13 0 4
-6 23 -12 44 -14 20 -1 37 -7 37 -13 0 -5 5 -3 11 5 8 12 10 12 8 -5 -5 -60
-1 -65 45 -65 25 0 48 -5 52 -12 4 -7 3 -8 -4 -4 -7 4 -12 2 -12 -3 0 -6 5
-11 10 -11 7 0 7 -7 -1 -21 -8 -15 -8 -19 0 -15 6 4 11 3 11 -3 0 -6 112 -10
320 -11 l320 0 0 40 0 40 45 0 c47 0 51 4 46 58 -2 19 3 22 38 22 22 0 43 5
46 10 4 6 16 8 28 5 20 -6 21 -5 3 6 -15 9 -16 13 -5 20 10 6 10 9 2 9 -7 0
-16 -8 -22 -17 -8 -15 -10 -12 -9 15 1 22 4 29 9 20 7 -10 9 -10 9 0 0 6 5 12
11 12 5 0 7 -4 4 -10 -3 -5 -1 -10 4 -10 6 0 11 5 11 10 0 6 7 10 15 10 16 0
18 7 15 56 -1 22 3 31 14 31 9 0 16 -5 16 -11 0 -6 5 -4 10 4 7 11 10 12 10 2
0 -10 3 -10 15 2 8 8 15 31 15 50 0 35 1 36 39 36 l39 0 7 84 7 84 34 -2 c24
-1 34 3 35 14 1 8 3 24 4 35 1 11 3 59 3 107 l2 87 38 3 c20 2 38 9 38 16 1 6
2 98 3 204 0 105 4 188 8 185 3 -4 12 -2 19 4 8 7 14 7 19 -1 5 -8 11 -8 21 1
20 16 21 1069 2 1069 -9 0 -8 4 2 10 13 9 13 11 0 19 -16 11 -33 -6 -23 -22 3
-5 -4 -4 -15 2 -11 6 -22 18 -26 28 -5 15 -3 15 10 -2 14 -18 16 -19 25 -3 6
11 16 15 27 11 15 -6 16 -5 2 12 -9 11 -10 16 -2 11 6 -4 12 -3 12 3 0 5 -17
11 -37 13 -45 4 -41 -34 -43 360 -1 204 -4 278 -13 282 -9 3 -9 5 1 5 6 1 12
5 12 10 0 9 -7 9 -45 1 -32 -7 -33 2 -36 173 -1 94 -1 189 -1 210 1 21 -2 35
-8 32 -5 -3 -8 12 -6 35 2 22 -1 40 -6 40 -6 0 -7 -8 -4 -17 6 -17 5 -17 -8 0
-15 19 -36 23 -36 6 0 -5 4 -7 10 -4 6 4 7 -1 3 -11 -4 -11 -2 -15 4 -11 6 4
17 -1 24 -11 13 -15 12 -16 -3 -3 -21 15 -24 2 -5 -19 9 -11 8 -11 -7 0 -11 8
-22 14 -25 12 -3 -1 -7 15 -8 35 -3 43 -11 258 -12 319 l-1 40 -40 -2 -40 -1
0 163 0 163 -37 3 -38 3 -6 140 c-7 156 -6 145 -18 145 -5 0 -8 -7 -7 -16 0
-9 -7 -18 -17 -19 -9 -2 -15 1 -11 6 3 5 10 7 15 4 10 -7 8 23 -3 41 -4 6 -1
11 7 11 8 0 12 -4 9 -9 -3 -4 3 -8 12 -8 28 0 -1 24 -31 26 -27 1 -31 -6 -14
-23 8 -8 7 -17 -3 -32 -13 -19 -15 -9 -18 97 -5 217 -4 211 -50 206 l-30 -4
-1 75 c-1 41 -3 80 -4 85 -1 6 -3 28 -4 50 -1 29 -5 40 -17 40 -9 0 -12 -5 -8
-12 6 -10 4 -10 -7 0 -7 6 -20 12 -29 12 -12 0 -16 15 -18 82 -1 45 -4 83 -5
84 -2 2 -20 4 -40 6 -34 2 -38 5 -35 28 2 14 9 24 16 22 8 -1 11 2 7 8 -3 6
-10 8 -15 5 -5 -3 -11 36 -12 87 l-3 93 -37 -2 -38 -3 0 85 c0 91 1 90 -57 85
-22 -1 -23 2 -25 82 -4 170 0 153 -41 156 -20 2 -37 9 -38 15 0 7 -2 39 -4 72
-2 33 -4 66 -4 73 -1 7 -16 12 -41 12 l-39 0 -3 83 -3 82 -35 0 -35 0 -3 83
-3 82 -39 0 -40 0 0 80 0 80 -40 0 -40 0 -1 45 c-1 41 -4 87 -8 116 0 6 -17 9
-38 7 l-38 -3 -1 45 c-1 25 -2 62 -3 83 -1 36 -2 37 -40 37 l-40 0 -3 48 c-3
44 -4 47 -30 45 -16 -1 -28 2 -28 8 0 6 5 7 12 3 7 -5 8 -3 3 6 -6 10 -11 9
-21 -5 -12 -16 -13 -15 -12 11 1 16 1 53 0 82 l-2 52 -40 0 -40 0 -1 58 c-1
31 -1 67 -2 80 0 19 -5 22 -37 22 -38 0 -38 0 -44 48 -3 26 -7 61 -8 79 -1 27
-5 31 -27 31 -49 -1 -51 1 -51 47 l0 45 -40 0 -40 0 -1 43 c-1 23 -2 56 -3 72
0 34 -27 51 -55 36 -15 -9 -18 -4 -20 36 -3 59 -5 63 -46 63 -32 0 -33 2 -39
48 -3 26 -7 57 -7 70 -1 17 -5 21 -19 17 -12 -4 -22 1 -29 12 -6 10 -11 13
-11 6 0 -6 5 -15 10 -18 6 -4 8 -11 5 -16 -4 -5 2 -6 11 -2 14 5 16 3 11 -11
-5 -11 -3 -15 5 -10 7 4 8 3 4 -4 -11 -18 -29 -14 -22 5 6 16 6 16 -11 0 -18
-15 -19 -15 -21 16 -1 18 -5 53 -8 80 l-6 47 -39 0 -39 0 0 45 0 45 -40 0 -40
0 -1 43 c-3 119 0 112 -41 111 l-38 0 0 43 0 43 -40 0 -40 0 0 40 c0 25 -5 40
-12 41 -7 1 -26 2 -42 3 -16 0 -31 7 -34 15 -3 9 0 11 8 6 9 -5 11 -4 6 3 -9
15 -18 51 -19 80 -1 14 -6 21 -14 18 -7 -3 -15 -1 -18 4 -3 5 -12 7 -21 3 -8
-3 -12 -8 -9 -12 7 -6 12 -7 43 -10 14 -1 15 -3 2 -11 -9 -6 -17 -5 -22 3 -6
9 -8 8 -8 -3 0 -11 -4 -9 -12 5 -13 22 -14 26 -16 98 l-2 47 -40 0 -40 0 0 40
c0 40 0 40 -39 40 -40 0 -40 0 -43 43 -3 41 -4 42 -38 42 -30 0 -35 4 -38 25
-7 64 -9 66 -52 62 l-40 -4 -1 41 c-2 54 -3 58 -11 67 -11 10 -10 26 0 20 5
-3 9 1 9 9 0 11 -4 11 -22 -1 -20 -13 -35 -10 -35 7 0 5 6 6 14 3 8 -3 16 -1
20 4 3 5 -5 8 -17 7 -12 -1 -22 -7 -21 -13 3 -30 5 -34 18 -29 8 3 20 -1 26
-9 13 -15 12 -15 -32 -17 -23 -1 -27 13 -31 115 -1 36 -2 37 -39 35 -21 -2
-39 1 -39 5 -1 4 -2 22 -3 40 -1 29 -4 32 -36 36 -41 4 -45 7 -46 33 -1 10 -2
27 -3 37 -1 15 -9 19 -38 18 -38 -1 -38 -1 -41 42 l-3 44 -40 -4 -39 -4 0 43
0 43 -43 0 -44 0 3 39 2 40 -41 3 c-41 3 -42 4 -42 41 0 37 0 37 -41 37 -46 0
-56 11 -48 57 3 19 1 24 -5 14 -6 -9 -10 -10 -12 -2 -2 6 -9 3 -16 -7 -7 -13
-8 -23 -1 -33 8 -11 9 -10 4 4 -7 23 1 22 14 -2 9 -17 7 -19 -10 -16 -26 5
-59 24 -42 25 8 0 10 5 5 13 -4 6 -8 17 -8 22 0 6 -19 11 -42 13 -43 3 -43 3
-43 43 0 39 0 39 -40 39 l-40 0 0 40 0 40 -40 0 c-42 0 -46 7 -41 63 2 12 -5
17 -26 18 -15 1 -35 2 -43 3 -10 1 -17 15 -20 41 -5 36 -8 40 -35 41 -52 2
-54 3 -52 36 2 29 -1 33 -28 35 -16 2 -51 6 -77 9 l-48 6 0 39 0 39 -45 0 -46
0 3 35 c1 19 0 36 -3 39 -2 3 -36 7 -74 10 -39 3 -74 5 -78 5 -5 1 -8 11 -7
24 5 56 2 59 -40 55 l-40 -4 0 38 c0 43 -8 47 -98 49 -62 2 -63 2 -62 28 4 49
2 51 -45 51 l-45 0 0 40 0 40 -80 0 -80 0 0 39 0 39 -77 7 c-43 4 -82 9 -86
12 -4 3 -1 16 8 30 10 14 12 22 6 19 -6 -4 -14 0 -17 8 -4 11 -20 16 -52 16
-25 0 -42 3 -39 7 4 3 -5 15 -20 25 -21 13 -24 18 -10 18 9 0 17 -4 17 -10 0
-5 5 -10 10 -10 11 0 14 29 3 31 -36 6 -53 4 -57 -7 -3 -7 1 -17 9 -21 12 -7
10 -11 -8 -22 -19 -13 -21 -12 -10 1 7 8 10 18 6 22 -4 4 -8 15 -8 24 0 13
-12 18 -50 22 -48 5 -49 6 -50 39 0 25 -5 35 -18 37 -9 1 -15 -2 -11 -7 3 -5
0 -9 -5 -9 -6 0 -11 5 -11 10 0 6 -25 10 -55 10 -58 0 -61 3 -57 60 0 9 -9 16
-24 16 -13 1 -24 -2 -24 -7 0 -5 -5 -9 -11 -9 -5 0 -7 5 -4 10 4 6 -17 10 -55
10 -46 0 -59 3 -54 13 6 10 4 10 -7 0 -7 -7 -24 -13 -37 -13 -21 0 -23 4 -21
34 4 43 -3 51 -49 52 -130 3 -124 2 -122 32 4 51 4 50 -82 52 -46 1 -92 2
-103 1 -18 0 -17 2 5 14 14 8 19 14 11 15 -8 0 -11 3 -8 7 4 3 -1 12 -11 20
-16 12 -15 13 3 6 11 -3 17 -3 14 1 -10 10 -49 16 -49 7 0 -5 7 -14 15 -21 8
-7 15 -17 15 -22 0 -5 -12 4 -26 21 -25 30 -28 31 -110 31 l-84 0 0 40 0 40
-125 0 -125 0 0 40 0 40 -102 1 c-138 1 -143 2 -144 17 -1 6 -2 16 -3 21 0 6
-10 9 -21 8 -15 -1 -18 -6 -14 -20 6 -18 5 -18 -13 0 -18 18 -18 18 2 27 11 5
26 8 33 7 6 -1 12 2 12 7 0 9 5 9 -180 18 -75 3 -138 11 -142 17 -3 6 -5 18
-3 28 7 34 5 34 -198 37 -108 2 -137 5 -131 15 5 7 1 7 -10 -2 -15 -13 -19
-13 -27 0 -6 10 -9 10 -9 2 0 -7 -7 -13 -15 -13 -10 0 -15 10 -15 28 0 21 3
24 10 12 7 -12 9 -10 7 7 0 12 -5 19 -9 17 -4 -3 -8 0 -8 5 0 8 -70 11 -215
11 -213 0 -216 0 -205 20 8 15 8 20 -2 20 -9 0 -9 3 2 10 12 8 12 10 -5 11
l-20 0 20 9 c11 5 -142 9 -355 10 -455 3 -430 2 -424 12 3 4 1 8 -5 8 -5 0
-11 -3 -14 -7 -2 -5 -3 -3 -1 3 1 6 -3 17 -9 23 -8 8 -8 14 2 24 10 10 11 9 8
-3 -2 -8 -2 -12 0 -7 3 4 9 4 15 1 6 -4 5 -10 -3 -16 -11 -7 -11 -8 1 -7 8 1
23 -1 34 -6 18 -8 36 7 36 30 -1 6 -5 2 -11 -7 -5 -10 -15 -18 -21 -18 -9 0
-9 3 0 12 37 37 33 37 -713 37 -463 0 -725 -3 -725 -9 0 -6 6 -10 13 -10 8 0
7 -3 -3 -10 -8 -5 -12 -12 -8 -15 3 -3 13 2 22 11 9 9 19 14 22 12 2 -3 -5
-13 -15 -22 -20 -18 -43 -14 -40 7 3 22 -1 37 -8 37 -5 0 -8 -15 -8 -34z
m1460 12 c4 -3 2 -9 -3 -12 -5 -3 -15 1 -21 8 -10 11 -9 14 3 12 9 -1 18 -5
21 -8z m-1385 -46 c0 -5 -7 -9 -15 -9 -8 0 -12 4 -9 9 3 4 9 8 15 8 5 0 9 -4
9 -8z m2126 -64 c3 -4 -1 -5 -10 -4 -8 1 -18 5 -22 8 -3 4 1 5 10 4 8 -1 18
-5 22 -8z m1164 -252 c0 -3 -4 -8 -10 -11 -5 -3 -10 -1 -10 4 0 6 5 11 10 11
6 0 10 -2 10 -4z m699 -260 c0 -6 -3 -5 -6 2 -2 6 -8 10 -12 8 -4 -3 -7 4 -7
15 0 19 1 19 13 3 7 -10 13 -23 12 -28z m584 -213 c-7 -3 -13 -12 -14 -21 0
-11 -2 -13 -6 -4 -6 15 17 46 26 36 3 -4 0 -9 -6 -11z m27 -22 c0 -5 -7 -11
-14 -14 -10 -4 -13 -1 -9 9 6 15 23 19 23 5z m158 -63 c-2 -6 -10 -13 -16 -14
-7 -1 -8 0 -2 3 5 2 8 9 4 14 -3 5 0 9 6 9 7 0 10 -5 8 -12z m-38 -28 c0 -5
-5 -10 -11 -10 -5 0 -7 5 -4 10 3 6 8 10 11 10 2 0 4 -4 4 -10z m1309 -791
c-10 -6 -10 -9 -2 -9 7 0 17 8 22 18 8 13 10 14 11 2 0 -13 1 -13 10 0 8 12
10 11 7 -5 -4 -31 -15 -42 -39 -41 -22 1 -24 6 -19 47 0 5 6 7 12 3 8 -4 7 -9
-2 -15z m-5333 -471 c4 -7 4 -10 -1 -6 -4 4 -15 2 -24 -5 -14 -11 -14 -10 -2
6 16 20 18 21 27 5z m4 -34 c0 -8 -19 -13 -24 -6 -3 5 1 9 9 9 8 0 15 -2 15
-3z m5935 -4 c3 -5 1 -10 -4 -10 -6 0 -11 5 -11 10 0 6 2 10 4 10 3 0 8 -4 11
-10z m-3778 -325 c0 -8 -4 -12 -9 -9 -4 3 -8 9 -8 15 0 5 4 9 8 9 5 0 9 -7 9
-15z m1659 -800 c0 -23 -1 -24 -15 -10 -14 14 -14 17 -1 25 8 5 15 10 16 10 0
0 0 -11 0 -25z m324 -240 c0 -2 -9 -3 -19 -2 -11 0 -18 5 -15 9 4 6 34 0 34
-7z m-25 -24 c3 -5 2 -12 -3 -15 -5 -3 -9 1 -9 9 0 17 3 19 12 6z m3479 -560
c4 -5 -3 -7 -14 -4 -11 3 -20 0 -20 -6 0 -6 5 -10 11 -8 6 1 14 -5 16 -13 4
-12 3 -12 -5 -2 -5 8 -12 13 -16 12 -4 -1 -12 1 -19 3 -9 4 -8 8 3 16 19 13
37 14 44 2z m-39 -49 c-3 -3 -11 0 -18 7 -9 10 -8 11 6 5 10 -3 15 -9 12 -12z
m200 -212 c1 -24 -3 -27 -30 -25 -41 4 -41 3 -28 16 6 6 9 17 7 23 -3 8 6 12
23 12 24 0 28 -4 28 -26z m-2740 -90 c3 -5 1 -10 -4 -10 -6 0 -11 5 -11 10 0
6 2 10 4 10 3 0 8 -4 11 -10z m1563 -2513 c8 -10 6 -13 -7 -13 -11 0 -17 6
-14 13 3 7 6 13 8 13 1 0 7 -6 13 -13z m202 -423 c0 -8 -19 -13 -24 -6 -3 5 1
9 9 9 8 0 15 -2 15 -3z m58 -256 c-2 -6 -12 -12 -21 -14 -9 -1 -15 2 -11 7 3
5 10 7 15 4 5 -4 9 -1 9 4 0 6 3 11 6 11 3 0 4 -5 2 -12z m317 -1368 c3 -5 1
-10 -4 -10 -6 0 -11 5 -11 10 0 6 2 10 4 10 3 0 8 -4 11 -10z m30 -20 c-3 -5
-14 -10 -23 -9 -14 0 -13 2 3 9 27 11 27 11 20 0z m2275 -324 c-7 -7 -13 -7
-20 0 -6 6 -3 10 10 10 13 0 16 -4 10 -10z m-2185 -249 c6 -5 -1 -6 -15 -2
l-25 6 25 -15 c14 -9 23 -16 20 -16 -30 -7 -40 -7 -40 1 0 6 -5 7 -12 3 -7 -5
-8 -2 -3 7 16 28 28 39 34 32 3 -4 11 -11 16 -16z m971 -2069 c4 -7 3 -8 -4
-4 -7 4 -12 2 -12 -5 0 -7 -3 -10 -6 -6 -6 5 3 27 11 27 2 0 7 -5 11 -12z"/>
<path d="M9125 11724 c-19 -14 -19 -15 2 -11 26 4 38 13 26 20 -4 3 -17 -1
-28 -9z"/>
<path d="M11504 9022 c-10 -15 -8 -18 7 -19 10 -1 21 2 24 8 4 5 -2 6 -12 2
-16 -6 -16 -5 -4 10 7 9 9 17 5 17 -5 0 -14 -8 -20 -18z"/>
<path d="M2973 13455 c0 -8 4 -12 9 -9 5 3 6 10 3 15 -9 13 -12 11 -12 -6z"/>
<path d="M2039 13338 c-6 -25 -6 -38 1 -38 5 0 10 5 12 12 3 7 7 5 11 -6 4 -9
3 -15 -1 -12 -4 2 -14 1 -22 -5 -8 -5 -10 -9 -5 -10 6 0 18 -2 27 -4 20 -4 31
10 33 38 1 11 -4 17 -14 15 -9 -1 -22 1 -28 5 -7 5 -13 7 -14 5z m44 -33 c4
-8 3 -16 -1 -19 -4 -3 -9 4 -9 15 -2 23 3 25 10 4z"/>
<path d="M5705 13307 c-15 -12 -16 -15 -4 -22 8 -5 11 -5 7 0 -4 4 0 14 10 21
23 18 11 18 -13 1z"/>
<path d="M11530 13209 c0 -5 5 -7 10 -4 6 3 10 8 10 11 0 2 -4 4 -10 4 -5 0
-10 -5 -10 -11z"/>
<path d="M7505 12749 c-11 -16 -1 -19 13 -3 7 8 8 14 3 14 -5 0 -13 -5 -16
-11z"/>
<path d="M7474 12710 c0 -13 4 -16 10 -10 7 7 7 13 0 20 -6 6 -10 3 -10 -10z"/>
<path d="M7501 12704 c0 -11 3 -14 6 -6 3 7 2 16 -1 19 -3 4 -6 -2 -5 -13z"/>
<path d="M12242 12541 c9 -15 15 -17 29 -8 18 11 16 27 -2 27 -6 0 -7 -4 -4
-10 3 -5 1 -10 -4 -10 -6 0 -11 5 -11 10 0 6 -5 10 -10 10 -6 0 -6 -7 2 -19z"/>
<path d="M12326 12452 c-3 -5 1 -9 9 -9 8 0 12 4 9 9 -3 4 -7 8 -9 8 -2 0 -6
-4 -9 -8z"/>
<path d="M18908 12423 c7 -3 16 -2 19 1 4 3 -2 6 -13 5 -11 0 -14 -3 -6 -6z"/>
<path d="M18939 12418 c-6 -22 -5 -38 3 -38 6 0 8 6 5 14 -3 8 -1 17 6 20 9 3
9 5 0 5 -7 1 -13 0 -14 -1z"/>
<path d="M8139 12383 c-13 -16 -12 -17 4 -4 16 13 21 21 13 21 -2 0 -10 -8
-17 -17z"/>
<path d="M18895 12389 c-11 -16 -1 -19 13 -3 7 8 8 14 3 14 -5 0 -13 -5 -16
-11z"/>
<path d="M12493 12285 c0 -8 4 -12 9 -9 5 3 6 10 3 15 -9 13 -12 11 -12 -6z"/>
<path d="M1134 12228 c-3 -5 0 -7 8 -6 7 2 12 -2 11 -8 -1 -6 5 -11 12 -11 10
0 12 4 5 12 -5 7 -8 14 -5 17 3 2 -2 5 -10 5 -9 0 -18 -4 -21 -9z"/>
<path d="M8553 12165 c0 -8 4 -12 9 -9 4 3 8 9 8 15 0 5 -4 9 -8 9 -5 0 -9 -7
-9 -15z"/>
<path d="M12646 12132 c-3 -5 1 -9 9 -9 8 0 12 4 9 9 -3 4 -7 8 -9 8 -2 0 -6
-4 -9 -8z"/>
<path d="M12755 12050 c3 -5 8 -10 11 -10 2 0 4 5 4 10 0 6 -5 10 -11 10 -5 0
-7 -4 -4 -10z"/>
<path d="M8826 12012 c-3 -5 1 -9 9 -9 8 0 12 4 9 9 -3 4 -7 8 -9 8 -2 0 -6
-4 -9 -8z"/>
<path d="M19093 12005 c0 -8 4 -12 9 -9 5 3 6 10 3 15 -9 13 -12 11 -12 -6z"/>
<path d="M12813 11984 c0 -7 4 -11 9 -8 5 3 16 0 25 -8 15 -12 15 -11 3 8 -14
23 -37 28 -37 8z"/>
<path d="M12883 11917 c-3 -6 -1 -7 5 -3 7 4 12 2 12 -3 0 -6 -4 -11 -9 -11
-11 0 -8 -26 4 -37 4 -4 5 -2 1 5 -4 6 -2 12 3 12 6 0 11 -6 11 -12 0 -9 4 -8
10 2 7 11 10 11 10 2 0 -7 5 -10 11 -7 6 5 2 13 -11 22 -12 8 -19 21 -17 27 6
15 -21 17 -30 3z"/>
<path d="M12934 11919 c-3 -6 -2 -15 3 -20 5 -5 9 -1 9 11 0 23 -2 24 -12 9z"/>
<path d="M1247 11909 c7 -7 15 -10 18 -7 3 3 -2 9 -12 12 -14 6 -15 5 -6 -5z"/>
<path d="M1230 11890 c0 -5 5 -10 11 -10 5 0 7 5 4 10 -3 6 -8 10 -11 10 -2 0
-4 -4 -4 -10z"/>
<path d="M9550 11406 c0 -2 8 -10 18 -17 15 -13 16 -12 3 4 -13 16 -21 21 -21
13z"/>
<path d="M9605 11351 c-6 -11 9 -23 19 -14 9 9 7 23 -3 23 -6 0 -12 -4 -16 -9z"/>
<path d="M13565 11160 c-3 -5 -1 -10 4 -10 6 0 11 5 11 10 0 6 -2 10 -4 10 -3
0 -8 -4 -11 -10z"/>
<path d="M19413 11025 c0 -8 4 -15 9 -15 4 0 8 4 8 9 0 6 -4 12 -8 15 -5 3 -9
-1 -9 -9z"/>
<path d="M19428 10991 c-16 -18 -15 -20 1 -18 9 0 17 9 17 19 0 10 -1 18 -1
18 0 0 -8 -9 -17 -19z"/>
<path d="M7310 10268 c0 -4 4 -8 9 -8 6 0 12 4 15 8 3 5 -1 9 -9 9 -8 0 -15
-4 -15 -9z"/>
<path d="M7316 10236 c3 -9 11 -16 16 -16 13 0 5 23 -10 28 -7 2 -10 -2 -6
-12z"/>
<path d="M10680 10198 c0 -6 3 -8 7 -5 3 4 12 2 18 -3 9 -7 16 -6 25 5 7 9 8
15 2 15 -6 0 -13 -6 -15 -12 -4 -10 -6 -10 -6 0 -1 15 -31 16 -31 0z"/>
<path d="M19747 9702 c2 -9 -4 -12 -20 -8 -12 3 -16 3 -9 0 9 -4 10 -9 2 -19
-8 -10 -8 -15 1 -21 7 -4 9 -3 5 4 -3 6 -2 13 3 16 5 3 11 -1 15 -9 9 -23 37
-6 33 21 -1 13 -7 27 -12 31 -4 4 -5 2 -1 -4 4 -7 3 -13 -3 -13 -5 0 -11 3
-14 8 -2 4 -2 1 0 -6z m23 -21 c0 -6 -4 -13 -10 -16 -5 -3 -10 1 -10 9 0 9 5
16 10 16 6 0 10 -4 10 -9z"/>
<path d="M4499 9681 c-1 -3 -1 -10 0 -14 1 -4 -6 -10 -14 -13 -8 -3 -12 -10
-9 -15 3 -5 10 -6 16 -3 7 4 8 2 4 -5 -4 -6 -11 -9 -16 -6 -10 6 -66 -44 -62
-56 2 -8 -13 -13 -31 -10 -5 1 -6 -3 -3 -8 4 -5 1 -13 -5 -16 -5 -4 -8 -13 -5
-20 3 -9 -2 -11 -16 -7 -14 3 -19 1 -14 -6 4 -7 3 -12 -1 -12 -18 0 -64 -53
-58 -67 5 -14 3 -14 -12 -2 -15 12 -16 12 -10 -3 4 -12 1 -18 -9 -18 -8 0 -17
-7 -20 -15 -4 -8 -10 -12 -15 -9 -8 5 -13 -9 -10 -29 0 -4 -2 -6 -6 -6 -19 3
-33 -2 -33 -12 0 -5 5 -7 12 -3 7 4 8 3 4 -4 -4 -6 -14 -8 -23 -5 -12 5 -15 2
-10 -10 4 -11 2 -14 -8 -10 -8 3 -18 -2 -21 -11 -3 -9 -10 -13 -15 -10 -5 3
-14 -5 -19 -18 -9 -20 -10 -19 -7 13 l3 35 -91 3 c-80 2 -303 7 -437 10 -48 1
-48 1 -48 35 0 41 79 37 -655 38 -695 1 -662 2 -662 -26 -1 -39 -3 -46 -14
-46 -5 0 -7 6 -3 13 6 8 3 8 -9 -2 -9 -7 -23 -11 -31 -8 -8 3 -17 3 -20 -1 -4
-3 -55 -7 -114 -9 -133 -3 -156 -8 -144 -30 5 -9 7 -24 5 -34 -5 -17 -16 -19
-84 -19 -44 0 -81 -5 -84 -11 -4 -6 -13 -8 -21 -5 -7 3 -18 -4 -24 -14 -7 -14
-7 -20 0 -20 5 0 10 6 10 13 0 7 9 13 20 13 15 0 20 -7 20 -26 0 -26 -1 -26
-76 -28 -42 -1 -79 -4 -82 -6 -2 -3 -5 -21 -5 -40 -1 -36 -2 -36 -44 -36 l-43
0 0 -40 0 -40 -40 0 -40 0 0 -45 0 -45 -40 0 -40 0 0 -80 0 -80 -40 0 -40 0
-1 -52 c-2 -68 -1 -328 1 -441 1 -76 4 -88 18 -86 55 5 62 0 62 -41 0 -41 1
-42 53 -42 25 -1 27 -4 27 -42 0 -31 5 -44 21 -54 12 -8 18 -9 14 -3 -4 7 4
11 19 11 24 0 26 -4 26 -39 0 -40 0 -40 43 -43 40 -3 42 -5 42 -35 0 -17 3
-34 6 -37 4 -4 36 -7 72 -8 80 -1 91 -7 85 -47 l-5 -31 86 0 86 0 1 -35 c0
-19 3 -37 6 -40 2 -3 81 -7 174 -10 144 -4 227 -9 243 -14 2 0 -2 -7 -8 -14
-6 -8 -8 -17 -4 -20 10 -10 -6 -8 -28 3 -13 7 -19 7 -19 0 0 -5 7 -10 16 -10
8 0 12 -4 9 -10 -3 -5 0 -7 8 -4 8 3 18 1 22 -5 4 -7 12 -8 24 -1 10 5 21 6
25 2 4 -3 179 -7 389 -8 210 -1 491 -2 625 -3 l242 -2 0 -38 0 -38 162 -2 c89
-1 164 -4 167 -6 2 -3 4 -19 5 -37 1 -28 5 -33 29 -35 19 -1 25 2 20 10 -5 9
-3 9 8 0 8 -6 61 -12 129 -14 125 -3 146 -9 128 -39 -16 -25 -31 -14 -17 13 9
19 8 20 -3 5 -13 -15 -15 -15 -24 0 -9 13 -12 13 -19 2 -5 -9 -4 -11 3 -6 7 4
12 2 12 -3 0 -6 -4 -11 -9 -11 -6 0 -9 -9 -8 -19 0 -11 5 -17 9 -15 5 3 6 11
2 17 -3 7 1 4 9 -6 11 -14 16 -15 20 -5 4 10 6 10 6 -1 1 -11 5 -10 16 5 13
16 14 16 9 2 -6 -16 2 -18 80 -18 l86 0 0 -40 0 -40 48 -2 c26 -1 56 -3 67 -4
11 -1 30 -2 41 -3 19 -1 21 -6 17 -35 l-4 -34 80 -7 c49 -4 81 -12 82 -19 1
-6 2 -22 2 -36 2 -27 2 -27 98 -29 l65 -1 -1 -40 -1 -40 60 -1 c34 -1 71 0 84
1 20 1 22 -3 20 -34 -1 -19 -6 -32 -12 -29 -5 3 -6 1 -2 -5 4 -7 27 -12 51
-12 l44 0 3 -42 c3 -42 3 -43 41 -43 20 1 38 -4 38 -10 1 -5 3 -19 4 -30 1
-11 3 -25 3 -31 1 -7 17 -11 39 -10 27 1 37 -3 41 -16 4 -16 7 -16 33 -3 25
14 28 14 23 0 -3 -8 -9 -13 -13 -11 -9 6 -46 -23 -38 -30 4 -4 15 -1 24 7 15
11 16 11 6 -1 -19 -21 -16 -29 8 -23 15 4 27 0 35 -12 8 -11 14 -13 14 -7 0 7
9 12 20 12 11 0 20 -4 20 -10 0 -5 5 -10 11 -10 5 0 7 5 4 10 -3 6 -2 10 4 10
6 0 9 -17 7 -40 l-4 -40 43 0 43 0 0 -41 c1 -49 3 -52 44 -53 29 -1 33 -4 34
-32 0 -17 5 -37 10 -45 5 -8 9 -18 9 -24 1 -5 7 -9 15 -7 11 2 10 -2 -2 -11
-25 -19 -23 -22 14 -24 25 -1 28 1 15 9 -13 7 -15 13 -7 28 8 16 7 18 -4 14
-8 -3 -17 -1 -20 4 -3 5 7 9 23 8 24 -1 29 -5 30 -31 1 -16 4 -51 7 -77 6 -44
8 -48 33 -47 48 3 51 0 51 -41 l0 -40 40 0 40 0 0 -46 0 -46 38 4 37 3 3 -42
c3 -39 10 -48 34 -44 5 0 7 -4 5 -10 -1 -6 4 -14 11 -16 7 -3 11 -1 10 4 -2 4
0 9 5 11 16 5 19 1 7 -13 -10 -12 -10 -15 1 -15 10 -1 9 -3 -3 -10 -19 -11
-57 -2 -38 10 8 5 6 11 -5 20 -13 11 -14 10 -9 -5 5 -12 4 -16 -3 -12 -7 5 -9
0 -6 -13 3 -12 8 -19 10 -16 3 3 16 1 28 -4 16 -6 25 -5 29 3 2 7 5 3 7 -8 3
-30 6 -59 8 -72 1 -8 16 -13 41 -13 l40 0 0 -45 c0 -47 3 -50 58 -45 20 1 23
-3 21 -32 -1 -18 -1 -54 0 -80 l1 -48 40 0 40 0 2 -42 c0 -24 2 -52 3 -63 1
-11 3 -28 4 -38 1 -13 8 -18 24 -17 44 4 47 1 47 -45 0 -40 2 -45 23 -45 13 0
29 -6 36 -12 11 -10 13 -10 7 0 -4 6 -2 12 3 12 6 0 10 -10 10 -22 0 -13 2
-45 5 -73 3 -27 5 -53 5 -57 1 -5 19 -8 41 -8 l40 0 0 -84 0 -83 40 3 40 3 0
-83 c0 -89 3 -94 52 -91 22 2 26 -1 17 -12 -6 -7 -7 -13 -2 -13 5 0 10 -12 10
-27 1 -16 2 -63 4 -105 l3 -78 38 0 c38 0 38 0 39 -42 1 -24 2 -71 2 -105 1
-35 5 -63 9 -63 3 0 4 -9 1 -20 -6 -22 12 -28 20 -7 4 9 6 9 6 0 1 -7 12 -13
24 -13 24 0 24 -1 26 -116 1 -64 3 -120 6 -123 2 -4 18 -6 34 -5 17 1 33 -1
36 -6 2 -4 5 -77 6 -164 1 -169 -2 -160 57 -158 l22 1 1 -204 c1 -113 3 -223
4 -245 1 -22 3 -49 4 -61 0 -11 6 -17 11 -14 6 4 7 12 4 18 -4 7 -4 9 1 5 4
-4 15 -2 24 4 13 10 14 10 4 -1 -8 -9 -9 -21 -2 -38 5 -14 6 -30 2 -36 -4 -6
0 -8 9 -4 14 5 16 -32 17 -336 1 -188 4 -374 7 -414 7 -71 7 -72 35 -71 16 1
31 -1 34 -3 2 -3 7 -49 10 -104 3 -55 7 -109 8 -120 2 -16 9 -20 40 -19 l37 0
2 -55 c0 -31 1 -68 1 -82 0 -22 4 -26 26 -25 14 1 31 4 37 8 7 5 11 -10 13
-40 1 -25 4 -48 6 -50 2 -3 20 -5 39 -5 35 -1 36 -2 36 -44 l0 -42 42 -3 c41
-3 43 -5 44 -36 1 -18 3 -35 6 -38 3 -2 40 -5 82 -5 l77 0 -3 -37 -3 -37 93
-3 c56 -2 90 -7 87 -12 -4 -6 -1 -10 4 -10 6 0 11 4 11 9 0 4 10 7 23 6 34 -4
34 -4 41 -21 4 -10 2 -13 -6 -8 -8 5 -9 2 -5 -10 5 -12 3 -16 -5 -13 -7 2 -12
11 -10 21 2 10 -4 16 -15 15 -12 0 -13 -2 -5 -6 10 -4 9 -9 -4 -24 -10 -11
-12 -19 -6 -19 7 0 12 5 12 11 0 5 5 7 10 4 6 -4 8 -10 5 -14 -2 -5 38 -9 90
-9 97 -1 100 0 95 42 -1 11 3 15 9 12 6 -4 11 -3 11 3 0 5 -6 12 -12 15 -7 3
1 5 17 4 17 0 74 0 128 0 l97 2 0 40 0 40 80 0 80 0 0 40 c0 39 1 40 34 40 40
0 59 19 54 57 -3 26 -1 28 39 31 39 3 41 5 41 35 0 18 0 53 1 80 l1 47 40 0
40 0 0 84 0 84 35 -2 c20 -2 38 0 40 5 5 7 8 681 6 1258 l-1 303 -35 -4 c-22
-2 -36 1 -39 9 -3 6 -6 107 -7 223 0 115 -5 210 -10 210 -5 0 -9 5 -9 11 0 5
5 7 10 4 6 -3 10 -1 10 4 0 6 -6 11 -12 11 -9 0 -9 3 1 9 10 7 3 9 -25 8 l-39
-2 -3 133 c-2 95 -6 131 -14 126 -7 -5 -8 -3 -3 7 13 20 13 70 1 66 -6 -2 -10
-14 -10 -25 1 -12 -3 -22 -7 -22 -5 0 -7 11 -5 25 3 18 0 25 -10 25 -8 0 -12
-4 -9 -10 3 -6 -1 -7 -9 -4 -13 5 -16 25 -17 95 -1 78 -3 121 -8 160 0 6 -12
9 -25 7 -47 -9 -46 -12 -55 215 -1 25 -4 27 -40 27 l-39 0 -2 103 c-1 56 -2
112 -1 124 1 19 -4 22 -39 20 l-39 -3 -3 86 -3 85 -36 -1 -36 0 -2 79 c-1 44
-6 88 -12 99 -5 10 -7 22 -4 27 3 5 2 16 -1 25 -5 14 -9 14 -22 4 -8 -7 -18
-11 -21 -8 -3 3 -6 -7 -6 -22 -1 -46 -13 -42 -14 4 0 24 -2 59 -4 78 -2 19 -4
54 -5 78 l-2 42 -40 0 -40 0 0 45 c0 25 -4 45 -9 45 -4 0 -22 14 -39 30 -18
17 -27 30 -22 30 6 0 10 5 10 11 0 5 -4 7 -10 4 -6 -4 -10 11 -10 37 0 24 -5
50 -10 58 -5 8 -10 10 -10 4 0 -6 -13 -11 -30 -12 -16 0 -30 4 -30 9 0 6 5 7
10 4 6 -3 10 -1 10 4 0 6 -5 11 -11 11 -5 0 -9 8 -8 18 1 9 1 41 0 70 l-1 52
-40 0 -40 0 -1 53 c-1 28 -1 64 0 80 1 25 -2 27 -39 27 l-40 0 0 40 c0 22 -4
40 -8 40 -5 0 -8 18 -7 40 2 32 -1 38 -12 29 -10 -9 -13 -8 -13 2 0 11 -2 11
-10 -1 -7 -11 -10 -11 -10 -2 0 7 -5 10 -11 7 -6 -5 -4 -12 8 -22 10 -8 13
-12 6 -9 -13 7 -12 -19 2 -31 4 -4 5 -3 2 3 -3 6 0 11 8 11 8 0 11 -5 8 -10
-4 -6 -1 -7 8 -2 8 5 11 4 6 -1 -4 -4 -19 -9 -32 -10 -19 -1 -24 4 -24 20 0
12 -2 30 -4 41 -3 11 -6 39 -6 63 l-1 42 -40 0 c-39 0 -40 1 -41 38 -2 35 -6
90 -8 103 -1 3 -7 6 -13 6 -7 0 -21 4 -30 8 -14 5 -18 2 -18 -11 0 -16 2 -17
10 -4 6 10 10 11 10 3 0 -7 3 -12 8 -12 28 5 35 -2 16 -17 -10 -8 -13 -12 -5
-8 10 5 12 3 6 -6 -6 -9 -4 -11 5 -5 8 5 11 4 7 -2 -4 -5 -19 -9 -34 -8 -30 1
-29 -2 -32 100 l-1 55 -39 0 c-40 0 -40 0 -43 43 -3 41 -4 42 -40 45 l-36 3
-7 78 -7 79 -39 -2 -39 -2 0 43 0 43 -39 0 c-40 0 -40 0 -43 43 -3 42 -3 42
-40 41 l-38 -1 0 43 c0 41 -2 44 -27 45 -16 1 -34 1 -40 0 -8 -1 -13 10 -13
29 0 22 4 29 13 25 6 -4 2 2 -10 13 -14 12 -34 19 -51 17 -27 -2 -30 1 -30 29
-1 17 -5 51 -9 76 -8 43 -9 45 -48 50 -35 4 -40 8 -40 30 0 15 -5 24 -13 22
-8 -1 -11 2 -7 8 3 6 11 8 16 5 5 -4 9 -1 9 5 0 6 -14 10 -33 8 -42 -2 -55 6
-53 34 1 13 -2 31 -6 41 -7 14 -13 15 -28 7 -14 -8 -20 -8 -20 0 0 6 -4 9 -9
5 -11 -6 -34 29 -25 38 3 3 3 14 0 24 -5 14 -17 18 -58 20 -51 2 -78 20 -55
36 8 6 7 7 -3 4 -8 -2 -14 -12 -14 -21 1 -9 -4 -16 -11 -16 -7 0 -12 12 -13
28 0 51 -1 52 -42 52 l-40 0 0 40 c0 38 -2 40 -30 40 -16 0 -33 -1 -37 -2 -5
-2 -10 17 -13 42 -5 47 -4 46 -68 49 -16 1 -23 7 -21 19 5 53 1 58 -53 60
-100 6 -103 7 -106 26 -2 10 2 23 8 30 9 8 11 6 6 -11 -8 -25 4 -36 24 -21 12
8 12 9 -2 4 -20 -6 -22 2 -8 24 9 13 11 13 21 0 9 -13 10 -13 6 0 -2 9 -15 15
-30 14 -15 -1 -27 3 -27 7 0 5 -18 9 -40 9 l-40 0 0 40 0 40 -45 0 c-47 0 -47
0 -48 58 0 19 -4 22 -33 18 -18 -2 -36 0 -40 3 -3 3 -22 6 -42 6 -36 0 -37 2
-42 40 -5 43 1 41 -112 44 l-48 1 0 40 0 40 -62 1 c-35 1 -73 0 -85 0 -18 -2
-21 3 -20 36 l2 38 -82 3 -83 3 0 39 0 39 -82 3 -83 3 -3 37 -3 36 -82 8 c-45
4 -99 6 -120 5 -32 -2 -38 1 -35 16 2 11 12 18 25 17 13 -1 20 2 18 7 -3 4
-14 6 -25 4 -14 -3 -20 2 -20 16 0 20 -5 20 -216 22 -28 0 -32 3 -29 26 5 49
1 51 -127 51 l-121 0 6 34 c3 19 0 39 -6 46 -9 10 -9 11 0 6 6 -3 14 -2 18 4
3 5 1 10 -6 10 -7 0 -5 6 6 13 13 10 15 16 6 21 -9 6 -9 11 0 22 6 8 8 14 5
14 -4 0 -2 9 4 20 9 17 8 20 -7 20 -15 0 -15 2 -3 9 8 6 19 7 25 3 5 -3 4 1
-3 10 -9 11 -10 18 -2 23 7 4 7 12 0 25 -8 15 -7 18 3 15 9 -4 13 4 12 26 0
23 -6 33 -19 35 -10 1 -21 5 -24 9 -4 3 8 4 26 0 19 -3 32 -1 32 5 0 5 -5 10
-12 10 -6 0 -3 7 8 16 19 15 19 16 -1 10 -19 -6 -19 -5 -2 8 20 16 22 32 5 39
-8 3 -6 6 5 6 10 1 17 9 17 22 0 11 4 28 9 38 7 13 6 18 -5 18 -7 0 -15 -3
-15 -6z m-23 -93 c4 -7 3 -8 -4 -4 -7 4 -12 2 -12 -5 0 -7 -3 -10 -6 -6 -6 5
3 27 11 27 2 0 7 -5 11 -12z m-63 -91 c7 3 8 2 4 -2 -14 -16 -36 -14 -29 3 4
10 7 12 10 4 2 -7 9 -9 15 -5z m-46 -22 c0 -8 -3 -13 -5 -10 -3 3 -11 0 -19
-6 -18 -16 -16 -4 3 15 19 20 21 20 21 1z m60 -9 c0 -8 -6 -12 -15 -9 -11 5
-11 7 0 14 7 5 13 9 14 9 0 0 1 -6 1 -14z m-120 -31 c0 -8 -4 -12 -9 -9 -5 3
-6 10 -3 15 9 13 12 11 12 -6z m127 -3 c3 -5 -1 -9 -9 -9 -8 0 -12 4 -9 9 3 4
7 8 9 8 2 0 6 -4 9 -8z m-48 -41 c0 -16 -3 -17 -14 -9 -12 10 -7 19 13 28 1 0
1 -9 1 -19z m54 4 c0 -1 -6 -7 -13 -13 -10 -8 -13 -6 -13 7 0 11 6 17 13 14 7
-3 13 -6 13 -8z m-90 -7 c0 -3 -9 -6 -20 -5 -11 1 -20 5 -20 9 0 3 9 6 20 5
11 -1 20 -5 20 -9z m-850 -12 c0 -2 -8 -10 -17 -17 -16 -13 -17 -12 -4 4 13
16 21 21 21 13z m793 -8 c-6 -7 -9 -21 -8 -30 2 -10 -1 -18 -6 -18 -5 0 -8 8
-6 18 3 20 16 42 24 42 3 0 1 -6 -4 -12z m-830 -17 c3 -13 1 -18 -9 -14 -7 2
-10 11 -7 19 7 19 10 18 16 -5z m958 -8 c13 -15 12 -15 -7 -5 -16 8 -24 8 -34
-1 -12 -10 -12 -9 -1 6 17 21 25 21 42 0z m-182 -42 c7 -13 6 -18 -4 -18 -7 0
-11 7 -7 15 3 9 1 13 -5 9 -5 -3 -10 0 -10 8 0 17 14 10 26 -14z m108 15 c0
-8 -6 -12 -15 -9 -11 5 -11 7 0 14 7 5 13 9 14 9 0 0 1 -6 1 -14z m-54 -19 c3
-7 -3 -13 -14 -13 -13 0 -15 3 -7 13 6 7 12 13 13 13 2 0 5 -6 8 -13z m-269
-13 c3 -8 2 -12 -4 -9 -6 3 -10 10 -10 16 0 14 7 11 14 -7z m43 -13 c-1 -12
-6 -17 -16 -13 -10 4 -11 7 -3 10 7 2 12 8 12 13 0 6 -5 7 -12 3 -7 -4 -8 -3
-4 5 10 16 25 5 23 -18z m267 21 c3 -5 -1 -9 -9 -9 -8 0 -12 4 -9 9 3 4 7 8 9
8 2 0 6 -4 9 -8z m-164 -21 c0 -5 -8 -15 -17 -22 -16 -12 -17 -12 -6 2 7 9 10
19 6 22 -3 4 -1 7 5 7 7 0 12 -4 12 -9z m244 -3 c-6 -9 -44 -6 -44 3 0 4 11 6
24 5 13 0 22 -4 20 -8z m-384 -12 c0 -3 -4 -8 -10 -11 -5 -3 -10 -1 -10 4 0 6
5 11 10 11 6 0 10 -2 10 -4z m177 -11 c0 -8 -4 -12 -9 -9 -5 3 -6 10 -3 15 9
13 12 11 12 -6z m41 -2 c-12 -15 -22 -18 -14 -4 4 5 0 11 -6 14 -7 3 -3 4 9 4
17 -1 19 -4 11 -14z m85 2 c-3 -9 -8 -14 -10 -11 -3 3 -2 9 2 15 9 16 15 13 8
-4z m-276 -11 c-3 -3 -12 -4 -19 -1 -8 3 -5 6 6 6 11 1 17 -2 13 -5z m1901
-683 c2 -1 0 -6 -3 -11 -5 -8 -12 -7 -23 2 -13 11 -14 11 -4 -8 6 -12 8 -24 5
-28 -3 -3 -1 -6 5 -6 5 0 13 5 15 10 3 6 4 5 3 -2 -2 -7 -14 -13 -28 -13 -24
-1 -26 4 -19 57 1 6 20 6 49 -1z m706 -573 c-5 -8 -2 -9 9 -5 9 3 19 2 21 -2
4 -7 -28 -8 -42 -2 -5 2 8 21 14 21 3 0 2 -5 -2 -12z m23 -41 c0 -7 -9 -13
-19 -13 -18 0 -18 1 -2 13 10 7 18 13 19 13 1 0 2 -6 2 -13z m260 -229 c1 -13
-1 -18 -5 -12 -4 6 -19 10 -34 9 -15 -1 -25 2 -22 6 2 4 13 6 24 4 11 -2 22 0
25 6 9 13 11 11 12 -13z m-1560 -988 c-1 -11 -5 -20 -9 -20 -10 0 -10 4 -2 24
8 22 13 20 11 -4z m2380 -75 c0 -6 -6 -12 -12 -12 -6 0 -12 6 -12 12 0 6 6 12
12 12 6 0 12 -6 12 -12z m286 -598 c3 -8 0 -14 -7 -14 -7 0 -13 6 -13 14 0 7
4 13 8 13 4 0 9 -6 12 -13z m115 -150 c8 -10 6 -13 -11 -14 -12 0 -16 1 -9 4
6 3 10 9 6 14 -8 14 2 11 14 -4z m89 -168 c0 -21 -5 -29 -19 -29 -22 0 -23 8
-1 32 16 18 16 18 0 12 -9 -3 -17 -2 -17 3 0 5 8 9 18 10 14 1 19 -6 19 -28z
m483 -1461 c0 -6 -6 -5 -15 2 -10 8 -15 9 -15 2 0 -6 9 -16 20 -22 11 -6 20
-15 20 -21 0 -6 -7 -3 -15 5 -9 9 -24 20 -33 26 -14 8 -15 11 -3 19 16 11 41
4 41 -11z m-30 -38 c0 -5 -2 -10 -4 -10 -3 0 -8 5 -11 10 -3 6 -1 10 4 10 6 0
11 -4 11 -10z m-1590 -934 c0 -3 -4 -8 -10 -11 -5 -3 -10 -1 -10 4 0 6 5 11
10 11 6 0 10 -2 10 -4z m201 -1225 c6 10 9 11 9 2 0 -7 5 -13 11 -13 5 0 7 6
3 13 -5 9 -4 9 6 0 16 -15 23 -46 9 -37 -5 3 -9 -2 -9 -10 0 -19 -16 -21 -26
-4 -4 6 -3 8 3 5 6 -4 14 0 17 9 4 11 2 15 -8 11 -15 -6 -36 11 -35 28 0 5 3
4 6 -4 5 -11 7 -11 14 0z"/>
<path d="M11190 9548 c0 -4 4 -8 9 -8 6 0 12 4 15 8 3 5 -1 9 -9 9 -8 0 -15
-4 -15 -9z"/>
<path d="M14710 9526 c0 -2 8 -10 18 -17 15 -13 16 -12 3 4 -13 16 -21 21 -21
13z"/>
<path d="M2160 9381 c0 -6 4 -13 10 -16 6 -3 7 1 4 9 -7 18 -14 21 -14 7z"/>
<path d="M2129 9353 c-13 -16 -12 -17 4 -4 16 13 21 21 13 21 -2 0 -10 -8 -17
-17z"/>
<path d="M3546 9352 c-2 -4 4 -8 14 -8 10 0 16 4 14 8 -3 4 -9 8 -14 8 -5 0
-11 -4 -14 -8z"/>
<path d="M19826 9283 c-4 -9 -4 -18 -1 -21 3 -3 5 0 5 6 0 6 8 12 18 14 15 3
16 4 0 10 -10 4 -19 1 -22 -9z"/>
<path d="M19836 9255 c-11 -8 -15 -15 -9 -15 6 0 16 7 23 15 16 19 11 19 -14
0z"/>
<path d="M1670 9170 c0 -5 5 -10 10 -10 6 0 10 5 10 10 0 6 -4 10 -10 10 -5 0
-10 -4 -10 -10z"/>
<path d="M4680 9125 c7 -8 10 -21 7 -28 -3 -7 2 -13 12 -13 16 0 16 2 2 28 -9
15 -20 28 -25 28 -5 0 -3 -7 4 -15z"/>
<path d="M4718 9110 c9 -16 18 -28 19 -26 6 6 -11 45 -22 50 -10 3 -9 -3 3
-24z"/>
<path d="M8693 9025 c0 -8 4 -15 9 -15 4 0 8 4 8 9 0 6 -4 12 -8 15 -5 3 -9
-1 -9 -9z"/>
<path d="M1253 8775 c0 -8 4 -12 9 -9 5 3 6 10 3 15 -9 13 -12 11 -12 -6z"/>
<path d="M11744 8629 c0 -11 8 -15 24 -13 16 2 22 -2 18 -11 -3 -8 0 -12 8 -9
6 2 12 15 12 27 0 19 -6 23 -31 23 -22 0 -31 -5 -31 -17z m52 -1 c3 -4 -1 -5
-10 -4 -8 1 -18 5 -22 8 -3 4 1 5 10 4 8 -1 18 -5 22 -8z"/>
<path d="M9025 8630 c-5 -8 42 -7 49 1 3 3 -6 5 -20 5 -14 0 -27 -3 -29 -6z"/>
<path d="M9054 8599 c-3 -6 -2 -15 3 -20 5 -5 9 -1 9 11 0 23 -2 24 -12 9z"/>
<path d="M15475 8120 c-4 -6 -10 -8 -14 -6 -4 3 -8 -1 -8 -9 0 -10 4 -12 12
-5 7 5 14 8 17 5 2 -3 5 2 5 10 0 18 -3 19 -12 5z"/>
<path d="M6567 8061 c-4 -17 -3 -21 5 -13 5 5 8 16 6 23 -3 8 -7 3 -11 -10z"/>
<path d="M6596 8065 c-3 -8 -1 -15 4 -15 6 0 10 7 10 15 0 8 -2 15 -4 15 -2 0
-6 -7 -10 -15z"/>
<path d="M6607 8026 c-4 -10 -1 -13 9 -9 15 6 19 23 5 23 -5 0 -11 -7 -14 -14z"/>
<path d="M1664 7799 c8 -12 12 -29 9 -38 -4 -9 -3 -13 2 -9 11 10 15 59 4 52
-5 -3 -9 0 -9 5 0 6 -5 11 -11 11 -6 0 -4 -9 5 -21z"/>
<path d="M9603 7802 c10 -4 18 -12 17 -17 0 -6 7 -11 17 -12 17 -3 17 -2 0 5
-10 4 -18 12 -17 17 0 6 -7 11 -17 12 -17 3 -17 2 0 -5z"/>
<path d="M1630 7790 c-11 -7 -11 -10 -2 -10 7 0 10 -4 7 -10 -4 -6 1 -7 11 -3
11 4 13 8 6 11 -7 2 -10 8 -6 13 7 11 3 11 -16 -1z"/>
<path d="M9596 7767 c3 -10 9 -15 12 -12 3 3 0 11 -7 18 -10 9 -11 8 -5 -6z"/>
<path d="M7005 7661 c6 -11 4 -13 -7 -9 -14 6 -17 -9 -9 -42 0 -4 11 -6 24 -6
19 0 23 5 24 36 0 19 -2 29 -4 22 -4 -10 -8 -10 -21 0 -13 11 -14 11 -7 -1z
m19 -41 c-6 -6 -15 -6 -24 0 -13 9 -13 11 0 20 18 11 39 -5 24 -20z"/>
<path d="M2210 7639 c0 -5 5 -7 10 -4 6 3 10 8 10 11 0 2 -4 4 -10 4 -5 0 -10
-5 -10 -11z"/>
<path d="M2240 7645 c0 -7 30 -13 34 -7 3 4 -4 9 -15 9 -10 1 -19 0 -19 -2z"/>
<path d="M2205 7610 c-3 -5 -1 -10 4 -10 6 0 11 5 11 10 0 6 -2 10 -4 10 -3 0
-8 -4 -11 -10z"/>
<path d="M7096 7572 c-2 -4 -1 -14 4 -22 7 -11 9 -9 7 8 -1 24 -3 26 -11 14z"/>
<path d="M15715 7560 c-4 -6 -10 -8 -14 -6 -4 3 -8 -1 -8 -9 0 -13 4 -12 19 2
18 16 22 23 14 23 -3 0 -8 -5 -11 -10z"/>
<path d="M15719 7523 c-13 -16 -12 -17 4 -4 9 7 17 15 17 17 0 8 -8 3 -21 -13z"/>
<path d="M12425 7290 c-3 -6 1 -7 9 -4 18 7 21 14 7 14 -6 0 -13 -4 -16 -10z"/>
<path d="M4999 6995 c0 0 -2 -8 -4 -17 -3 -16 -1 -16 21 -2 12 9 28 13 34 9 5
-3 10 -2 10 4 0 6 -13 9 -30 8 -16 -1 -30 -2 -31 -2z"/>
<path d="M5023 6963 c-17 -6 -16 -20 1 -26 10 -4 13 -1 10 8 -3 7 2 15 13 18
11 3 12 5 3 5 -8 0 -21 -2 -27 -5z"/>
<path d="M12603 6908 c-12 -20 -14 -48 -4 -48 6 0 8 9 6 20 -2 11 3 24 13 30
9 5 12 10 5 10 -6 0 -15 -6 -20 -12z"/>
<path d="M7559 6896 c-8 -9 -3 -33 7 -33 8 0 12 3 9 5 -3 3 0 10 5 17 7 8 5
12 -5 12 -8 0 -15 -1 -16 -1z"/>
<path d="M5407 6630 c-3 -11 -3 -20 -1 -20 2 0 8 9 14 20 6 11 7 20 2 20 -6 0
-12 -9 -15 -20z"/>
<path d="M5440 6646 c0 -2 7 -9 15 -16 9 -7 15 -8 15 -2 0 5 -7 12 -15 16 -8
3 -15 4 -15 2z"/>
<path d="M5427 6617 c-3 -8 1 -14 9 -14 16 0 19 13 5 21 -5 3 -11 0 -14 -7z"/>
<path d="M5526 6552 c-3 -5 1 -9 9 -9 8 0 12 4 9 9 -3 4 -7 8 -9 8 -2 0 -6 -4
-9 -8z"/>
<path d="M5600 6450 c-9 -6 -10 -10 -3 -10 6 0 15 5 18 10 8 12 4 12 -15 0z"/>
<path d="M7978 6233 c5 -21 7 -23 10 -9 2 10 0 22 -6 28 -6 6 -7 0 -4 -19z"/>
<path d="M8058 6100 c-4 -14 28 -60 44 -60 4 0 8 14 8 31 0 26 -3 30 -20 26
-10 -3 -21 0 -23 7 -2 7 -5 6 -9 -4z m42 -30 c0 -5 -2 -10 -4 -10 -3 0 -8 5
-11 10 -3 6 -1 10 4 10 6 0 11 -4 11 -10z"/>
<path d="M6192 5755 c4 -4 1 -13 -8 -20 -14 -10 -14 -12 3 -25 14 -11 16 -11
6 0 -10 10 -9 16 4 25 13 10 14 13 2 20 -8 5 -11 5 -7 0z"/>
<path d="M16270 5639 c0 -5 5 -7 10 -4 6 3 10 8 10 11 0 2 -4 4 -10 4 -5 0
-10 -5 -10 -11z"/>
<path d="M6398 5303 c7 -3 16 -2 19 1 4 3 -2 6 -13 5 -11 0 -14 -3 -6 -6z"/>
<path d="M10776 5143 c-6 -14 -5 -15 5 -6 7 7 10 15 7 18 -3 3 -9 -2 -12 -12z"/>
<path d="M2514 4948 c-3 -4 -1 -8 4 -8 7 0 8 -8 3 -52 -1 -4 -56 -9 -123 -10
-119 -3 -123 -4 -126 -25 -3 -20 -6 -21 -24 -12 -11 6 -22 9 -24 6 -2 -2 7
-10 21 -17 34 -18 31 -25 -12 -28 -21 -1 -58 -5 -83 -7 -25 -3 -56 -6 -68 -7
-22 -2 -22 -3 -6 -15 13 -9 20 -10 25 -2 4 7 6 -2 5 -19 -1 -17 -5 -34 -9 -39
-5 -4 -5 1 -1 12 7 17 5 18 -7 8 -9 -7 -25 -11 -37 -8 -12 2 -22 0 -22 -6 0
-5 -20 -9 -44 -9 l-44 0 4 -35 c1 -19 -1 -37 -6 -40 -5 -3 -42 -6 -82 -8 -71
-2 -73 -3 -72 -26 0 -14 9 -28 20 -32 18 -7 17 -8 -3 -8 -12 -1 -24 -5 -27 -9
-3 -5 -21 -8 -41 -7 l-35 3 0 -44 c0 -42 -1 -44 -29 -40 -41 5 -49 -3 -53 -49
-3 -39 -4 -40 -39 -37 -36 3 -37 3 -37 -33 0 -19 -8 -47 -17 -61 -9 -15 -12
-23 -6 -20 7 5 11 -2 11 -18 0 -24 -4 -26 -40 -26 l-40 0 0 -40 c0 -41 -2 -42
-50 -44 -24 -1 -25 -3 -28 -83 l-3 -83 -39 0 -40 0 0 -120 c0 -66 -3 -120 -7
-121 -5 -1 -20 -2 -35 -3 -14 0 -29 -4 -32 -7 -7 -6 -11 -540 -6 -772 2 -116
3 -127 18 -115 13 11 14 11 8 0 -6 -10 -3 -13 10 -12 43 5 44 2 44 -84 0 -76
2 -86 22 -100 12 -9 27 -16 33 -16 5 1 -1 7 -15 15 l-25 14 31 -2 c25 -2 31
-6 31 -25 0 -12 -4 -25 -10 -29 -6 -4 -7 -1 -2 7 5 9 4 11 -4 6 -6 -4 -19 -2
-27 5 -19 16 -37 -1 -23 -21 9 -12 10 -12 5 3 -4 12 -2 17 6 14 7 -2 12 -9 11
-14 -1 -6 9 -9 22 -7 24 2 25 -1 25 -47 l0 -49 39 0 39 0 1 -77 c1 -42 4 -79
6 -82 3 -2 21 -4 40 -3 34 1 35 1 35 -38 0 -45 6 -50 55 -52 26 -1 35 -6 34
-17 -5 -54 0 -61 42 -61 32 0 40 -3 38 -17 -5 -56 -1 -63 42 -63 38 0 40 -2
39 -27 -4 -50 -2 -53 40 -53 42 0 45 -4 41 -56 -2 -25 15 -34 54 -29 20 2 29
-3 32 -16 5 -16 8 -17 22 -7 14 11 14 11 4 -3 -7 -9 -9 -20 -5 -24 4 -5 1 -5
-5 -1 -8 4 -13 1 -13 -7 0 -11 20 -17 80 -22 85 -8 86 -9 81 -66 -2 -16 29
-19 204 -22 28 0 44 -11 45 -30 0 -5 -6 -5 -12 -1 -9 5 -9 2 1 -9 7 -9 10 -17
5 -17 -4 0 -4 -4 2 -10 5 -5 99 -10 212 -11 201 -1 203 -2 201 -23 -4 -53 -5
-53 90 -52 49 1 87 4 85 7 -2 3 3 15 11 25 8 10 14 24 15 29 0 6 -9 -3 -19
-18 -10 -16 -21 -25 -24 -20 -3 4 4 19 14 32 17 21 23 22 45 12 15 -6 23 -7
19 -1 -4 7 54 10 169 10 l176 0 0 39 0 38 88 3 c48 1 95 2 105 2 11 -1 15 4
11 11 -5 8 -3 8 7 0 22 -21 29 -15 29 26 l0 38 80 7 c45 4 78 11 75 17 -4 5
-1 9 6 9 9 0 9 3 0 14 -9 11 -9 15 1 19 8 3 5 6 -7 7 -38 3 15 17 57 15 l38
-2 0 44 0 43 40 0 40 0 0 40 0 40 45 0 45 0 0 40 0 40 40 0 40 0 0 40 0 40 40
0 40 0 0 43 c0 42 0 43 37 45 21 2 38 4 40 6 1 1 3 37 4 80 1 72 3 77 23 75
52 -4 56 -1 56 40 0 22 5 43 10 46 7 4 7 12 0 25 -7 13 -7 21 0 25 5 3 10 1
10 -6 0 -7 3 -9 6 -6 4 4 1 13 -5 21 -10 12 -6 15 26 18 36 3 38 5 39 38 9
215 7 206 34 207 14 0 31 1 38 2 11 1 13 80 11 411 l-1 410 -22 1 c-11 1 -29
2 -38 2 -15 0 -18 9 -18 62 0 34 -3 90 -6 124 l-7 61 -38 0 -39 0 0 84 0 83
-40 -3 -40 -3 0 45 0 44 -40 0 c-41 0 -41 0 -40 38 0 20 -1 55 -3 76 -2 35 -6
40 -32 43 -48 6 -52 10 -50 47 1 30 -2 36 -19 37 -61 3 -61 3 -66 44 -5 38 -7
40 -40 42 -19 0 -38 1 -41 2 -3 1 -5 17 -5 38 1 27 -3 37 -16 39 -16 2 -16 0
-2 -28 11 -20 12 -28 3 -22 -8 5 -11 2 -7 -8 4 -9 0 -15 -8 -15 -8 0 -15 4
-15 9 -1 4 -2 12 -3 17 -2 16 -16 25 -16 11 0 -7 -2 -11 -5 -8 -3 3 -3 12 1
21 5 15 8 14 25 -6 10 -12 18 -17 19 -11 0 20 -35 40 -75 43 -52 4 -55 6 -55
47 0 34 0 34 -45 34 -45 0 -49 4 -48 48 1 7 -4 11 -11 9 -6 -3 -10 -11 -8 -18
2 -8 0 -11 -3 -7 -4 4 -16 3 -26 -2 -15 -8 -17 -7 -14 8 2 10 -1 25 -6 33 -8
13 -21 15 -126 18 l-43 1 0 40 0 40 -92 1 c-51 1 -108 0 -125 -1 -32 -1 -33 0
-33 38 0 38 -1 40 -32 39 -18 -1 -36 -6 -40 -12 -5 -6 -8 -5 -8 3 0 11 -56 13
-290 11 -160 -1 -293 -6 -296 -11z m1146 -217 c0 -5 -11 -11 -25 -13 -14 -3
-25 -3 -25 -1 0 3 34 19 48 22 1 1 2 -3 2 -8z m-1806 -139 c3 -5 -1 -9 -9 -9
-8 0 -12 4 -9 9 3 4 7 8 9 8 2 0 6 -4 9 -8z m2276 -242 c0 -5 -5 -10 -11 -10
-5 0 -7 5 -4 10 3 6 8 10 11 10 2 0 4 -4 4 -10z m20 -34 c0 -2 -7 -7 -16 -10
-8 -3 -12 -2 -9 4 6 10 25 14 25 6z m-2890 -1431 c0 -2 -9 -3 -19 -2 -11 0
-18 5 -15 9 4 6 34 0 34 -7z m25 -4 c3 -5 2 -12 -3 -15 -5 -3 -9 1 -9 9 0 17
3 19 12 6z m2427 -985 c7 4 8 2 4 -5 -9 -13 -26 -5 -25 12 0 9 2 8 6 -1 2 -6
10 -9 15 -6z m18 -26 c0 -5 -8 -10 -17 -10 -15 0 -16 2 -3 10 19 12 20 12 20
0z m-790 -211 c0 -3 -7 -12 -15 -19 -10 -8 -12 -17 -6 -24 7 -8 -5 -11 -40
-12 -27 0 -46 2 -42 5 12 9 14 31 4 31 -5 0 -13 -9 -16 -20 -3 -11 -11 -20
-16 -20 -6 0 -7 5 -4 10 3 6 1 10 -4 10 -6 0 -11 -6 -11 -12 0 -9 -3 -8 -10 2
-5 9 -5 19 1 27 6 7 9 16 6 20 -3 4 30 8 74 9 43 0 79 -3 79 -7z"/>
<path d="M2806 1651 c2 -2 -4 -10 -14 -17 -16 -12 -16 -12 3 -11 11 1 25 9 32
17 11 15 28 8 28 -13 0 -6 12 -12 28 -12 15 -1 25 0 22 3 -3 3 2 13 10 21 13
15 8 17 -50 16 -35 0 -62 -2 -59 -4z m94 -15 c-14 -14 -37 -16 -37 -2 0 7 11
12 24 12 15 0 20 -3 13 -10z"/>
<path d="M6634 4848 c-5 -8 3 -12 19 -9 5 1 6 -7 2 -18 -3 -11 -1 -22 5 -26 5
-3 10 -1 10 4 0 6 6 10 13 9 6 -2 10 4 8 12 -2 8 -4 20 -4 26 0 12 -46 14 -53
2z m45 -16 c7 -13 6 -19 -2 -19 -7 0 -13 9 -13 19 0 10 1 18 3 18 1 0 7 -8 12
-18z"/>
<path d="M10843 4843 c-27 -5 -29 -16 -7 -37 18 -18 30 -20 39 -6 3 5 0 7 -9
4 -15 -6 -17 11 -3 34 5 6 7 11 5 11 -2 -1 -13 -4 -25 -6z"/>
<path d="M2203 4825 c0 -7 6 -11 14 -8 7 3 13 6 13 8 0 2 -6 5 -13 8 -8 3 -14
-1 -14 -8z"/>
<path d="M2035 4763 c1 -22 6 -27 25 -27 30 0 38 20 11 29 -12 3 -21 11 -21
16 0 5 -4 9 -8 9 -5 0 -8 -12 -7 -27z m20 -2 c3 -5 2 -12 -3 -15 -5 -3 -9 1
-9 9 0 17 3 19 12 6z"/>
<path d="M3610 4778 c0 -5 6 -8 13 -8 8 0 7 -4 -3 -10 -8 -5 -11 -10 -7 -10 5
0 20 8 33 19 l24 19 -30 -2 c-17 0 -30 -4 -30 -8z"/>
<path d="M13250 4110 c0 -5 5 -10 11 -10 5 0 7 5 4 10 -3 6 -8 10 -11 10 -2 0
-4 -4 -4 -10z"/>
<path d="M16505 3870 c-3 -6 1 -7 9 -4 18 7 21 14 7 14 -6 0 -13 -4 -16 -10z"/>
<path d="M7062 3277 c-10 -12 -10 -16 0 -20 10 -4 10 -6 1 -6 -7 -1 -13 -9
-13 -18 0 -15 2 -16 10 -3 5 8 10 11 10 6 0 -6 4 -6 10 0 7 7 7 20 2 33 -7 20
-10 21 -20 8z"/>
<path d="M19680 3271 c-8 -6 -17 -8 -20 -6 -3 1 -10 -3 -17 -10 -10 -10 -9
-14 3 -19 10 -4 13 -2 8 6 -5 8 -2 9 10 5 10 -4 15 -3 11 3 -3 6 1 10 9 10 9
0 16 5 16 10 0 12 -1 12 -20 1z"/>
<path d="M11166 2928 c3 -5 10 -6 15 -3 13 9 11 12 -6 12 -8 0 -12 -4 -9 -9z"/>
<path d="M4444 2881 c-15 -10 -14 -29 2 -35 9 -3 14 -1 12 7 -2 6 1 12 7 12 5
0 10 -8 10 -17 1 -10 5 -21 8 -25 4 -3 5 8 3 25 -2 17 2 33 8 35 6 2 -1 4 -15
4 -15 0 -31 -2 -35 -6z"/>
<path d="M13220 2855 c0 -2 6 -8 13 -14 10 -8 14 -7 14 2 0 8 -6 14 -14 14 -7
0 -13 -1 -13 -2z"/>
<path d="M13269 2847 c6 -8 7 -18 3 -22 -4 -5 -1 -5 6 -1 10 6 10 11 1 22 -6
8 -14 14 -16 14 -3 0 0 -6 6 -13z"/>
<path d="M4430 2830 c0 -5 5 -10 10 -10 6 0 10 5 10 10 0 6 -4 10 -10 10 -5 0
-10 -4 -10 -10z"/>
<path d="M11267 2674 c3 -8 10 -13 15 -12 16 6 14 21 -4 24 -11 1 -15 -3 -11
-12z"/>
<path d="M4370 2631 c0 -6 4 -13 10 -16 6 -3 7 1 4 9 -7 18 -14 21 -14 7z"/>
<path d="M1386 2468 c3 -4 14 -6 24 -5 31 5 32 13 1 12 -16 0 -27 -3 -25 -7z"/>
<path d="M1406 2435 c-11 -8 -15 -15 -9 -15 6 0 16 7 23 15 16 19 11 19 -14 0z"/>
<path d="M4273 2437 c0 -8 6 -14 14 -14 9 0 10 4 2 14 -6 7 -12 13 -14 13 -1
0 -2 -6 -2 -13z"/>
<path d="M16867 2189 c7 -7 15 -10 18 -7 3 3 -2 9 -12 12 -14 6 -15 5 -6 -5z"/>
<path d="M11572 2038 c1 -15 4 -28 7 -29 3 0 16 -2 28 -5 19 -3 21 0 19 28 -2
27 -7 32 -29 33 -22 2 -25 -2 -25 -27z m44 -3 c0 -15 -5 -22 -15 -20 -25 3
-23 42 2 42 7 0 13 -10 13 -22z"/>
<path d="M11593 2035 c0 -8 4 -12 9 -9 5 3 6 10 3 15 -9 13 -12 11 -12 -6z"/>
<path d="M18644 1972 c4 -3 14 -7 22 -8 9 -1 13 0 10 4 -4 3 -14 7 -22 8 -9 1
-13 0 -10 -4z"/>
<path d="M12850 1870 c0 -5 5 -10 10 -10 6 0 10 5 10 10 0 6 -4 10 -10 10 -5
0 -10 -4 -10 -10z"/>
<path d="M11810 1809 c0 -5 5 -7 10 -4 6 3 10 8 10 11 0 2 -4 4 -10 4 -5 0
-10 -5 -10 -11z"/>
<path d="M11835 1800 c-4 -6 -4 -14 -1 -17 3 -4 6 -1 6 5 0 7 5 12 11 12 5 0
7 -4 4 -10 -3 -5 -1 -10 5 -10 14 0 8 22 -7 27 -6 2 -14 -1 -18 -7z"/>
<path d="M11810 1770 c0 -5 5 -10 11 -10 5 0 7 5 4 10 -3 6 -8 10 -11 10 -2 0
-4 -4 -4 -10z"/>
<path d="M8171 1643 c-9 -16 -12 -16 -22 -3 -9 12 -10 12 -7 1 7 -23 26 -24
38 -2 13 25 5 28 -9 4z"/>
<path d="M2696 1623 c-6 -14 -5 -15 5 -6 7 7 10 15 7 18 -3 3 -9 -2 -12 -12z"/>
<path d="M7873 1625 c0 -8 4 -12 9 -9 4 3 8 9 8 15 0 5 -4 9 -8 9 -5 0 -9 -7
-9 -15z"/>
<path d="M2980 1626 c0 -2 7 -7 16 -10 8 -3 12 -2 9 4 -6 10 -25 14 -25 6z"/>
<path d="M8136 1607 c3 -10 9 -15 12 -12 3 3 0 11 -7 18 -10 9 -11 8 -5 -6z"/>
<path d="M8175 1611 c-3 -5 -2 -12 3 -15 5 -3 9 1 9 9 0 17 -3 19 -12 6z"/>
</g>
</svg>
